<?xml version="1.0" standalone="no"?>
<!DOCTYPE svg PUBLIC "-//W3C//DTD SVG 20010904//EN"
 "http://www.w3.org/TR/2001/REC-SVG-20010904/DTD/svg10.dtd">
<svg version="1.0" xmlns="http://www.w3.org/2000/svg"
 width="640.000000pt" height="640.000000pt" viewBox="0 0 640.000000 640.000000"
 preserveAspectRatio="xMidYMid meet">
<metadata>
Created by potrace 1.14, written by Peter Selinger 2001-2017
</metadata>
<g transform="translate(0.000000,640.000000) scale(0.100000,-0.100000)"
fill="#000000" stroke="none">
<path d="M3150 5866 c0 -2 -21 -61 -46 -132 -25 -71 -72 -212 -105 -314 -71
-218 -88 -260 -105 -260 -6 0 -24 19 -38 43 -14 23 -37 56 -52 72 l-26 30 17
-28 c12 -22 14 -32 5 -42 -7 -9 -8 -20 -2 -32 5 -10 7 -23 5 -30 -2 -6 1 -15
8 -19 8 -5 10 -3 4 7 -5 8 -4 11 0 6 5 -4 9 -16 10 -27 1 -14 -2 -17 -10 -10
-9 7 -12 2 -13 -20 0 -20 4 -30 14 -30 16 0 20 -55 4 -65 -12 -7 -14 -45 -2
-45 15 0 12 -90 -8 -266 -11 -98 -29 -273 -40 -389 -11 -115 -24 -225 -29
-243 -5 -17 -6 -30 -1 -27 11 7 -1 -139 -12 -146 -6 -4 -6 -9 1 -14 9 -5 9
-10 1 -20 -7 -9 -8 -15 -1 -20 6 -3 10 -53 10 -123 0 -64 0 -119 1 -122 1 -3
3 -20 5 -38 4 -54 -11 -45 -22 13 -5 30 -6 52 -1 49 4 -3 8 -1 8 5 0 5 -4 13
-10 16 -5 3 -10 14 -9 23 0 14 2 13 9 -3 7 -16 9 -13 9 15 -1 19 -3 29 -6 23
-22 -57 -30 67 -38 602 -7 418 -28 766 -55 904 -26 136 -114 385 -151 433 -17
21 -27 38 -22 38 4 0 -5 11 -22 25 -16 13 -25 24 -18 25 6 0 13 -6 16 -12 2
-7 7 -10 11 -7 4 4 -7 20 -24 37 -16 17 -30 35 -30 41 0 14 -21 14 -54 1 -24
-9 -26 -14 -26 -78 0 -37 4 -103 9 -147 5 -44 12 -113 15 -154 6 -74 6 -74
-13 -57 -11 10 -37 44 -58 75 -51 76 -50 76 -48 43 1 -18 -3 -29 -11 -29 -7 0
-10 5 -7 11 4 6 0 5 -9 -2 -12 -9 -18 -10 -23 -2 -4 7 -17 9 -29 6 -17 -4 -23
-1 -22 12 0 52 -6 71 -22 76 -17 6 -21 26 -24 104 -1 33 -2 33 -14 10 -7 -13
-13 -44 -14 -70 0 -40 -3 -47 -22 -51 -21 -4 -21 -4 -2 -6 18 -1 22 -11 32
-87 11 -86 9 -110 -8 -99 -10 6 -50 134 -53 166 -1 11 -5 15 -10 10 -5 -5 -2
-61 7 -132 21 -165 43 -439 56 -684 5 -110 12 -240 15 -290 l4 -90 -18 50
c-34 93 -73 170 -109 215 -54 67 -164 170 -175 163 -6 -3 -7 -1 -4 4 4 6 -9
23 -27 37 -41 31 -59 35 -26 6 13 -11 20 -23 17 -27 -4 -3 -1 -13 6 -21 10
-13 8 -14 -11 -8 -18 6 -22 4 -22 -14 0 -17 5 -21 19 -17 14 3 17 0 14 -14 -5
-18 -23 -27 -23 -11 0 4 -10 13 -23 21 -21 14 -21 13 -7 -5 8 -10 20 -23 26
-29 7 -5 15 -21 19 -35 6 -24 5 -24 -17 5 -34 45 -88 98 -133 131 -46 34 -66
49 -109 85 -17 14 -47 35 -66 46 -44 26 -207 83 -235 82 -14 0 -16 -2 -5 -6
24 -9 70 -55 64 -65 -3 -4 -10 -6 -15 -3 -5 3 -6 0 -3 -8 3 -9 -3 -16 -15 -20
-16 -4 -33 9 -73 56 -29 34 -56 64 -60 65 -5 2 -8 10 -8 18 0 8 -5 14 -11 14
-5 0 -7 -6 -3 -12 5 -8 0 -7 -11 2 -31 25 -13 -9 57 -107 71 -98 114 -168 178
-290 24 -45 48 -79 53 -76 6 3 7 1 3 -6 -4 -6 -2 -18 4 -26 6 -8 13 -33 15
-55 1 -23 8 -47 14 -53 9 -9 11 -7 6 8 -3 11 2 5 12 -13 10 -20 22 -31 30 -27
8 2 11 0 8 -5 -10 -17 6 -34 17 -19 8 11 9 10 4 -4 -3 -9 3 -32 14 -50 11 -17
20 -26 20 -19 0 6 5 12 11 12 6 0 8 -9 4 -20 -5 -16 -3 -19 11 -13 12 4 15 3
10 -6 -4 -6 -4 -31 0 -54 5 -34 8 -38 15 -22 5 13 8 14 8 5 0 -8 -6 -24 -14
-34 -15 -19 -15 -19 -15 3 0 12 -7 35 -15 51 -9 17 -13 30 -10 30 3 0 -11 21
-31 48 -40 52 -122 142 -130 142 -9 0 29 -65 61 -105 62 -77 87 -140 126 -307
33 -144 63 -312 80 -448 5 -47 13 -96 16 -109 5 -21 3 -22 -18 -16 -16 4 -20
3 -10 -3 9 -6 11 -17 6 -33 -7 -21 -9 -18 -21 26 -8 28 -23 90 -34 139 -21 92
-74 292 -90 336 -4 14 -16 52 -26 85 -9 33 -21 64 -26 69 -4 6 -8 18 -8 27 0
30 -96 165 -168 235 -124 122 -284 199 -430 208 -47 3 -51 2 -40 -12 8 -10 -7
-5 -36 11 -54 30 -60 32 -51 16 9 -14 -33 11 -64 39 -14 12 -30 22 -35 22 -11
0 3 -16 121 -136 107 -109 146 -162 180 -247 28 -68 31 -96 11 -109 -9 -5 -10
-10 -2 -15 16 -12 60 -76 68 -98 4 -11 -12 1 -34 28 -51 58 -66 61 -34 5 13
-24 29 -54 36 -68 7 -14 19 -35 28 -47 30 -39 101 -283 144 -490 16 -76 37
-139 65 -197 22 -46 41 -88 41 -94 0 -5 13 -27 28 -48 16 -21 41 -61 57 -87
23 -40 25 -51 14 -57 -9 -6 -20 -3 -31 7 -10 9 -18 13 -18 10 0 -4 -8 1 -18
11 -42 42 -107 184 -167 367 -67 203 -100 277 -170 386 -73 113 -182 206 -321
271 -58 28 -80 33 -144 33 -57 1 -90 7 -135 26 -59 24 -95 27 -95 7 0 -5 51
-64 112 -130 128 -135 205 -236 300 -388 98 -157 131 -233 133 -299 1 -37 12
-77 29 -116 15 -33 30 -78 32 -99 6 -46 11 -56 27 -56 9 0 9 2 1 8 -6 4 -12
28 -12 54 -1 25 -11 73 -23 105 -11 32 -23 72 -25 88 -8 53 -9 60 -17 72 -4 7
-9 28 -11 48 -2 19 -8 40 -13 47 -20 25 -25 58 -9 58 17 0 35 -54 94 -290 40
-157 64 -237 83 -272 6 -12 7 -24 1 -31 -11 -15 5 -80 18 -72 6 4 7 -1 3 -11
-5 -13 -3 -15 7 -9 8 5 11 4 6 -3 -8 -14 24 -53 37 -45 6 3 7 1 3 -5 -3 -6 11
-25 31 -42 l38 -32 -34 18 c-66 37 -92 77 -205 316 -41 86 -76 188 -79 226 0
6 -7 12 -15 12 -11 0 -12 -3 -3 -14 7 -8 13 -39 15 -69 2 -43 17 -85 71 -199
37 -78 78 -156 90 -173 35 -48 38 -55 21 -49 -9 3 -16 11 -16 18 0 6 -25 40
-55 76 -30 35 -55 68 -55 72 0 14 -147 133 -202 163 -50 28 -60 30 -170 31
-104 2 -116 0 -110 -15 5 -14 4 -14 -12 2 -9 9 -22 17 -27 17 -16 0 -10 -18
11 -33 18 -13 19 -15 5 -21 -25 -9 -55 -7 -55 4 0 6 5 10 10 10 6 0 10 5 10
11 0 14 -42 -12 -48 -29 -2 -7 26 -26 65 -43 37 -17 79 -36 93 -44 34 -18 166
-139 218 -200 128 -148 334 -521 300 -542 -7 -4 -6 -10 4 -17 8 -6 22 -24 31
-41 30 -59 52 -76 93 -73 22 1 53 -5 73 -16 29 -15 37 -16 65 -5 17 8 36 14
41 14 6 1 19 5 30 9 11 4 42 16 69 27 53 21 82 24 90 10 4 -5 -4 -7 -16 -4
-17 3 -19 2 -9 -5 16 -11 8 -17 -39 -27 -85 -18 -268 -173 -316 -267 -27 -53
-34 -53 -48 2 l-7 25 14 -23 c7 -12 16 -20 20 -16 3 4 -3 20 -14 35 -19 27
-19 31 -5 51 9 12 16 30 16 39 0 10 6 20 13 23 9 5 9 7 0 12 -7 3 -13 15 -13
27 0 38 -25 -1 -50 -77 -28 -84 -24 -135 19 -259 37 -109 70 -166 118 -206 61
-51 84 -44 137 42 25 41 46 79 46 86 0 6 20 31 44 55 36 37 51 44 89 47 40 4
48 1 58 -18 7 -13 19 -24 28 -24 49 -4 78 -9 97 -19 20 -11 74 -104 74 -131 2
-30 76 -164 93 -167 33 -7 83 27 141 93 38 43 65 65 79 65 17 0 19 -2 8 -9
-16 -10 61 -4 89 6 8 3 21 7 28 9 7 1 28 12 48 23 19 12 51 21 70 21 19 0 34
5 34 10 0 6 6 10 13 10 6 0 23 12 36 26 17 18 26 22 32 13 5 -8 9 -4 12 12 2
13 6 -32 7 -101 l3 -125 8 124 c5 68 10 125 12 127 2 2 3 -108 3 -244 0 -143
5 -266 11 -292 l11 -45 1 58 c1 42 5 57 14 54 6 -2 11 -16 9 -31 -2 -16 2 -26
10 -26 8 0 7 -5 -4 -16 -12 -13 -14 -23 -6 -50 5 -19 6 -44 3 -55 -5 -16 -3
-20 12 -17 15 3 19 -7 25 -72 17 -187 99 -309 252 -373 45 -19 88 -37 97 -40
9 -3 19 -21 23 -41 13 -71 99 -106 276 -113 267 -11 494 56 478 142 -5 22 0
29 36 47 62 32 97 61 153 130 94 116 153 253 153 355 0 21 5 44 11 50 9 9 9
20 1 40 -14 37 -24 83 -17 83 2 0 14 -17 25 -37 12 -21 19 -30 15 -19 -3 10 0
25 6 33 9 10 9 19 -1 38 -7 14 -17 25 -20 25 -4 0 -4 18 0 40 9 47 -5 65 -15
20 -4 -17 -11 -28 -15 -25 -5 3 -14 -5 -21 -17 -7 -13 -20 -29 -31 -36 -10 -7
-18 -19 -18 -27 0 -8 -6 -18 -13 -22 -23 -14 -49 -64 -42 -81 5 -13 3 -14 -5
-6 -8 8 -10 33 -5 78 7 63 11 71 68 139 69 83 90 123 76 149 -6 12 -6 18 0 18
10 0 16 -17 24 -70 3 -14 5 13 6 60 3 133 17 250 31 263 10 10 11 4 7 -27 -4
-21 -3 -35 1 -31 4 4 13 -19 19 -52 l12 -58 -5 70 c-3 39 -7 88 -9 110 l-5 40
17 -50 c16 -49 17 -49 23 -20 8 35 15 -106 12 -233 -1 -52 2 -81 8 -77 6 4 13
-1 16 -9 3 -9 20 -23 38 -31 37 -18 74 -10 143 30 24 15 46 25 47 23 2 -1 13
-33 25 -70 29 -86 41 -97 88 -74 75 36 141 86 154 119 7 17 18 35 23 39 7 5 6
8 -3 8 -10 0 -11 3 -3 13 6 7 9 51 7 107 -2 80 -9 113 -44 214 -22 66 -39 122
-36 124 3 3 5 0 5 -7 0 -7 6 -11 14 -8 8 3 38 -27 80 -83 36 -48 79 -101 95
-116 16 -16 41 -47 55 -68 21 -32 26 -35 26 -17 0 14 6 21 19 21 24 0 120 -64
141 -93 20 -29 109 -179 145 -244 39 -73 59 -71 140 11 89 90 137 192 141 295
l3 76 -9 -75 c-5 -46 -19 -96 -36 -132 -30 -63 -45 -73 -20 -13 19 44 20 55 6
55 -5 0 -10 -9 -10 -21 0 -11 -4 -18 -8 -15 -4 3 -7 -16 -7 -40 1 -25 -1 -40
-5 -34 -6 9 -13 9 -30 0 -18 -9 -25 -9 -40 5 -26 24 -4 74 30 70 8 -1 9 0 3 2
-14 5 -16 12 -15 53 1 16 -4 8 -12 -20 -14 -44 -14 -45 -15 -11 -1 18 -8 61
-16 95 -31 121 -52 167 -114 247 -49 63 -57 89 -21 67 10 -7 16 -17 12 -23 -3
-5 2 -4 11 4 18 14 24 2 7 -15 -7 -7 -5 -16 8 -27 16 -15 18 -15 18 2 0 13 -5
17 -16 13 -12 -4 -13 -3 -4 9 6 8 11 24 12 36 1 19 -4 22 -34 21 -35 -1 -89
36 -78 53 3 5 -3 6 -13 2 -14 -5 -16 -3 -6 7 10 11 24 8 75 -14 35 -15 72 -32
83 -38 14 -8 20 -8 23 1 2 7 9 6 19 -4 13 -14 73 -22 73 -10 0 3 -10 10 -22
16 -22 9 -22 9 2 5 14 -2 49 -11 79 -20 57 -16 76 -13 67 9 -2 7 5 21 17 32
l22 18 -19 -22 c-11 -13 -15 -23 -9 -23 16 0 44 36 36 45 -5 4 -3 5 4 1 7 -4
27 13 50 43 41 54 96 132 101 143 6 13 -41 -1 -57 -16 -12 -13 -11 -14 10 -9
l24 6 -22 -25 c-13 -13 -23 -28 -23 -32 0 -4 -8 -15 -17 -24 -22 -21 -58 -22
-58 -3 0 8 -7 16 -15 18 -13 4 -13 3 0 -7 12 -9 10 -10 -10 -5 -23 5 -23 5 -8
-8 10 -8 15 -17 12 -20 -3 -3 -14 2 -25 11 -18 15 -16 17 31 43 27 15 56 33
64 40 78 74 143 119 162 112 6 -2 20 6 30 19 45 55 104 98 137 99 27 1 29 2 9
7 -22 7 -20 10 30 47 29 22 76 58 103 80 89 71 180 112 290 130 55 10 129 18
165 19 l65 1 3 92 c3 84 1 91 -15 87 -10 -3 -43 -6 -73 -7 -48 -2 -55 -5 -55
-22 0 -11 -6 -25 -14 -31 -12 -9 -11 -12 3 -17 19 -7 22 -33 4 -39 -7 -3 2
-11 19 -18 28 -13 29 -15 15 -27 -23 -17 -45 -16 -39 1 6 14 -13 27 -43 31 -8
1 -39 7 -68 14 -45 11 -68 11 -153 -4 -131 -22 -161 -33 -277 -103 -275 -166
-409 -234 -460 -231 -9 0 -12 3 -5 5 7 3 10 11 7 18 -6 15 23 29 39 19 6 -4 8
0 4 9 -4 12 -1 14 14 11 10 -3 19 0 19 6 0 6 9 11 20 11 22 0 27 15 8 26 -6 4
-14 2 -16 -4 -2 -7 -8 -12 -14 -12 -6 0 -6 6 2 15 7 8 8 15 3 15 -6 0 -22 -15
-37 -32 -22 -27 -29 -30 -36 -18 -7 12 -10 11 -16 -5 -12 -32 -28 -43 -49 -34
-16 6 -17 8 -3 8 9 1 20 5 23 11 4 6 -1 7 -12 4 -31 -10 15 24 72 53 28 14 65
37 84 50 25 20 35 23 41 13 11 -18 53 22 49 46 -4 23 40 76 55 67 6 -3 8 -3 4
1 -5 6 97 143 132 176 24 23 130 149 130 155 0 13 -68 -51 -123 -116 -30 -36
-63 -66 -71 -66 -22 0 -15 19 12 33 12 6 19 14 16 17 -6 5 49 105 65 117 3 3
8 14 9 25 2 11 17 41 33 68 16 26 29 51 29 55 0 12 73 126 119 186 32 41 47
54 56 46 6 -5 14 -7 18 -4 3 3 4 -1 3 -10 -1 -8 -6 -19 -11 -23 -4 -4 -5 -1
-1 7 4 8 -6 0 -23 -17 -17 -18 -28 -39 -25 -47 7 -19 -32 -42 -39 -23 -4 9 -6
9 -6 0 -1 -6 3 -14 9 -18 5 -3 7 -12 4 -20 -4 -8 -9 -13 -13 -10 -4 2 -8 -1
-8 -8 0 -7 -4 -21 -7 -32 -5 -15 -4 -15 5 3 7 12 15 22 19 22 4 0 26 29 48 64
70 108 272 276 433 360 l87 45 -77 7 c-42 4 -85 8 -95 9 -11 1 -21 6 -23 12
-6 17 28 23 72 13 51 -12 68 -12 61 -1 -3 5 -37 17 -76 26 -146 36 -256 6
-406 -109 -40 -30 -75 -52 -80 -48 -4 4 -4 1 0 -6 5 -8 -11 -34 -42 -70 -47
-55 -63 -77 -182 -259 -30 -45 -58 -79 -63 -76 -6 3 -7 1 -3 -5 4 -7 -21 -47
-58 -95 -94 -120 -187 -202 -271 -237 l-50 -21 73 67 c40 36 86 86 103 111 22
32 34 41 39 33 5 -7 6 -19 3 -27 -7 -17 5 -17 23 1 12 13 12 17 -7 35 l-21 19
36 59 c20 32 36 62 36 66 0 15 171 349 211 412 27 43 45 62 55 58 8 -3 14 -10
14 -15 0 -6 -7 -7 -16 -4 -15 6 -15 4 -3 -11 10 -12 10 -15 1 -9 -14 8 -54
-33 -45 -48 3 -4 10 -2 15 5 6 10 7 7 3 -9 -5 -16 -3 -22 7 -20 18 4 39 33 42
61 7 45 19 67 37 67 11 0 19 5 19 11 0 6 -12 9 -27 7 -16 -2 -27 -8 -26 -15 2
-7 -4 -13 -12 -13 -20 0 -20 2 20 64 38 60 40 66 24 66 -37 0 -126 -144 -307
-500 -63 -124 -132 -247 -153 -275 -45 -59 -116 -133 -142 -147 -11 -5 2 11
27 36 25 24 46 50 46 56 0 6 4 9 9 6 5 -3 11 1 14 9 10 24 -37 -3 -55 -32 -12
-21 -16 -22 -21 -9 -4 9 -2 15 5 13 6 -1 12 3 15 10 7 18 -26 9 -42 -13 -8
-10 -15 -15 -15 -10 0 4 26 38 58 75 32 36 69 82 83 101 35 47 111 191 143
268 15 34 39 91 54 125 16 34 48 106 72 159 37 83 46 96 58 85 13 -10 14 -9 2
9 -18 29 1 60 144 238 53 66 167 186 176 186 3 0 6 -11 6 -24 0 -14 -4 -22 -8
-20 -4 3 -8 0 -8 -5 0 -6 -5 -11 -11 -11 -6 0 -8 8 -5 18 6 16 5 16 -8 -1 -8
-10 -12 -27 -9 -38 4 -13 -1 -25 -15 -35 -12 -8 -19 -21 -16 -29 4 -8 1 -15
-5 -15 -6 0 -10 -3 -9 -7 1 -5 -4 -19 -11 -33 -8 -16 0 -11 23 15 19 22 35 44
36 48 1 41 154 158 288 221 34 16 62 33 62 38 0 5 -12 2 -27 -5 -16 -8 -50
-20 -77 -26 -28 -7 -79 -28 -115 -46 -70 -37 -93 -37 -48 -1 15 12 27 26 27
31 0 12 41 40 53 37 4 -1 7 3 7 8 0 13 -47 3 -78 -17 -13 -8 -26 -13 -28 -10
-6 5 69 55 104 69 15 6 22 12 15 15 -14 5 -94 -35 -142 -71 -19 -14 -43 -26
-53 -26 -25 0 -105 -41 -152 -79 -47 -37 -63 -41 -21 -4 17 14 54 46 83 72 29
25 87 63 130 84 44 21 64 35 47 32 -76 -15 -258 -120 -342 -198 -63 -58 -253
-327 -372 -524 -24 -40 -47 -71 -51 -68 -4 3 -7 -3 -6 -13 0 -9 -5 -16 -12
-14 -8 1 -11 -2 -8 -7 8 -13 -63 -133 -75 -126 -15 10 -11 45 5 39 19 -7 50
54 35 72 -6 7 -19 12 -29 11 -22 -1 -16 -12 7 -12 9 0 18 -5 20 -11 4 -12 -25
-12 -44 -1 -6 4 -14 3 -18 -3 -6 -9 1 -14 18 -11 4 0 7 -4 7 -10 0 -5 5 -7 10
-4 6 3 10 -1 10 -10 0 -10 -7 -15 -17 -13 -22 4 -31 -41 -12 -53 9 -5 4 -20
-22 -58 -19 -28 -37 -51 -41 -51 -4 0 -16 17 -26 38 -23 48 -9 110 29 127 28
12 35 45 10 45 -14 1 -14 2 1 14 10 7 15 20 12 32 -3 11 2 40 10 64 10 29 12
48 6 54 -7 7 -10 2 -10 -11 0 -12 -4 -25 -10 -28 -6 -3 -10 -17 -10 -31 0 -13
-4 -24 -9 -24 -6 0 -6 11 -1 28 20 66 33 92 42 86 6 -4 8 1 4 12 -3 11 -1 26
5 34 8 12 9 10 4 -7 -3 -13 -2 -23 3 -23 13 0 42 45 42 65 0 9 4 14 8 11 4 -2
9 3 10 12 4 43 9 62 17 69 4 5 5 2 0 -6 -5 -10 -4 -12 4 -7 6 4 11 13 10 19
-4 24 21 68 33 61 7 -4 9 -3 5 1 -18 20 -35 11 -47 -26 -7 -21 -17 -39 -22
-39 -4 0 -8 2 -8 4 0 12 53 117 62 122 6 4 6 -1 -1 -14 -14 -27 -14 -28 9 -28
11 0 20 4 20 9 0 4 4 5 10 2 6 -3 7 1 3 10 -5 13 -7 14 -14 3 -13 -20 -11 1 3
25 7 12 13 28 14 36 2 8 12 27 23 42 12 16 21 32 21 36 0 4 -5 1 -10 -7 -9
-13 -10 -13 -10 1 0 8 7 24 16 35 14 17 15 17 10 1 -4 -11 -2 -16 5 -12 5 4 7
15 4 25 -5 16 38 79 70 102 18 13 -3 20 -25 8 -12 -6 -24 -9 -28 -6 -3 3 0 6
6 6 7 0 12 5 12 11 0 5 -4 7 -10 4 -5 -3 -10 -2 -10 4 0 14 18 23 22 10 4 -13
58 -1 58 13 0 6 -9 8 -20 5 -11 -3 -23 -1 -26 4 -3 6 -11 5 -20 -2 -7 -6 -20
-9 -29 -6 -20 8 -28 -9 -15 -30 9 -16 10 -15 5 5 -10 35 2 26 15 -13 11 -32 9
-38 -28 -92 -21 -32 -56 -89 -76 -126 -20 -38 -43 -78 -50 -90 -8 -12 -38 -78
-66 -147 -72 -176 -125 -300 -172 -407 -38 -85 -42 -91 -53 -70 -11 22 -1 42
17 31 4 -3 5 2 2 10 -3 9 -10 13 -15 10 -5 -3 -9 1 -9 8 -1 7 -7 0 -15 -17
-28 -57 -5 13 47 150 71 184 71 185 88 185 12 0 13 2 1 9 -11 7 -10 18 7 62
50 130 77 186 126 267 89 146 217 354 251 408 36 56 213 242 257 269 25 15 27
15 36 -2 14 -24 24 -12 31 37 2 14 60 40 66 30 4 -6 3 -10 -2 -9 -19 3 -33 -2
-33 -12 0 -5 6 -7 13 -3 7 4 8 3 4 -2 -5 -5 -16 -9 -24 -9 -9 0 -17 -8 -19
-19 -4 -29 -19 -39 -41 -28 -14 8 -24 6 -41 -8 -21 -17 -21 -19 -5 -29 25 -14
7 -14 -20 1 -19 10 -20 9 -9 -4 7 -9 11 -22 10 -29 -2 -8 3 -13 11 -11 12 3
12 0 1 -12 -14 -17 -25 -22 -15 -7 3 5 1 12 -5 16 -6 4 -8 10 -5 15 3 5 1 11
-3 14 -5 3 -26 -12 -46 -33 -24 -24 -34 -41 -27 -45 15 -10 31 2 25 18 -3 7 2
16 11 20 10 3 14 2 10 -5 -4 -5 -1 -17 7 -26 11 -15 11 -16 -4 -10 -19 7 -34
-8 -18 -18 5 -3 10 -11 10 -18 0 -6 -7 -2 -16 9 -13 16 -15 16 -10 2 3 -10 1
-18 -4 -18 -6 0 -10 7 -10 16 0 14 -3 14 -15 4 -13 -11 -14 -10 -9 6 6 17 4
16 -15 -3 -23 -25 -28 -38 -8 -28 6 4 3 -1 -8 -10 -16 -12 -17 -19 -8 -33 6
-9 16 -16 22 -14 6 1 11 0 11 -3 0 -8 -23 -48 -39 -68 -8 -9 -12 -19 -9 -22 2
-3 20 16 38 41 50 70 159 196 193 224 17 14 52 44 78 66 26 23 72 58 103 79
31 20 59 41 62 46 9 15 -23 10 -35 -5 -15 -18 -101 -26 -101 -9 0 6 14 14 30
18 55 12 31 20 -70 23 -72 2 -117 -1 -157 -13 -52 -15 -199 -87 -269 -131 -56
-35 -166 -136 -272 -248 -43 -46 -57 -55 -68 -45 -17 14 -19 33 -2 23 7 -4 8
-3 4 5 -13 20 -17 61 -6 61 19 0 10 18 -11 23 -14 4 -20 11 -16 21 3 8 1 17
-6 19 -15 6 59 74 95 88 16 6 25 15 22 20 -5 8 -1 10 36 13 8 1 14 7 12 14 -1
7 3 12 10 12 6 0 9 3 5 6 -24 24 -315 -218 -378 -316 -62 -96 -175 -368 -233
-560 l-31 -105 -44 -2 c-38 -2 -42 0 -38 18 3 10 1 17 -3 14 -5 -3 -36 -6 -69
-6 -34 -1 -61 -5 -61 -10 0 -5 6 -9 13 -9 8 0 8 -3 -2 -9 -8 -5 -11 -15 -8
-23 3 -8 1 -30 -4 -49 -14 -54 0 223 21 426 10 99 24 259 30 355 14 219 34
435 60 655 11 94 20 206 20 250 1 44 7 109 15 145 16 74 19 156 6 164 -5 4 -7
-12 -5 -34 2 -25 0 -39 -7 -37 -6 1 -15 -9 -20 -23 -9 -24 -9 -24 7 -5 16 19
16 19 9 -5 -4 -14 -14 -37 -21 -51 -33 -65 -78 -210 -105 -335 -31 -147 -37
-188 -59 -429 -35 -376 -127 -854 -200 -1044 -18 -45 -33 -81 -35 -79 -2 2 10
43 26 92 16 50 27 95 25 100 -2 6 -5 4 -5 -6 -1 -9 -6 -18 -12 -20 -6 -2 -12
-19 -13 -39 -4 -43 -20 -77 -30 -60 -4 6 -2 11 3 11 6 0 11 10 11 22 0 22 0
22 -17 -2 -10 -14 -17 -29 -15 -33 1 -5 -2 -6 -8 -2 -5 3 -10 -3 -10 -14 0
-12 -4 -21 -10 -21 -10 0 -3 27 13 48 6 7 14 32 18 55 4 23 15 67 24 97 21 74
41 193 64 390 11 91 27 216 35 278 11 82 15 174 12 335 -2 122 -1 214 3 204 6
-17 8 -16 19 8 7 14 12 32 12 40 0 8 5 15 10 15 6 0 10 7 10 15 0 8 9 23 20
33 12 11 18 26 15 35 -4 8 0 26 9 39 12 18 14 35 7 76 -5 32 -4 53 2 55 6 2 8
10 5 18 -4 10 -9 6 -18 -13 -7 -15 -16 -25 -20 -23 -4 3 -8 -1 -7 -8 0 -6 -1
-21 -2 -32 -1 -17 -3 -18 -12 -5 -8 11 -9 8 -5 -15 5 -22 4 -26 -4 -15 -5 8
-9 33 -9 55 1 35 2 37 9 15 l8 -25 1 28 c1 16 5 26 10 23 13 -8 21 18 10 35
-6 10 -9 10 -9 2 0 -7 -4 -13 -10 -13 -11 0 -14 53 -3 63 3 4 12 2 20 -5 10
-8 17 -8 24 -1 8 8 6 11 -6 10 -37 -4 -40 26 -15 145 39 180 38 277 -2 252 -7
-5 -22 -8 -33 -7 -17 1 -17 1 -2 -3 17 -5 16 -7 -4 -25 -12 -11 -30 -17 -39
-14 -19 6 -55 -32 -142 -150 -29 -38 -64 -83 -79 -100 -107 -121 -118 -136
-113 -152 4 -13 3 -14 -3 -5 -8 10 -16 5 -36 -22 -15 -19 -34 -41 -42 -50 -9
-9 -14 -20 -11 -25 3 -5 -2 -15 -12 -22 -16 -13 -16 -13 -2 6 8 11 -8 0 -35
-24 -28 -25 -52 -46 -54 -47 -5 -4 20 -105 36 -146 9 -20 13 -41 9 -46 -3 -5
1 -15 9 -22 16 -13 21 -35 6 -26 -14 9 -19 -57 -16 -199 1 -71 -4 -249 -12
-395 -11 -222 -20 -301 -53 -490 -21 -124 -46 -241 -54 -260 -20 -46 -20 -37
3 84 41 219 61 688 42 976 -17 253 -28 377 -72 770 -16 152 -38 291 -53 345
-32 112 -38 125 -56 135 -17 9 -120 15 -120 6z m85 -33 c1 -12 -5 -25 -12 -27
-19 -8 -55 -90 -47 -109 3 -8 0 -18 -5 -22 -6 -3 -9 -11 -5 -16 3 -6 -1 -18
-9 -27 -8 -9 -18 -33 -22 -52 -4 -19 -18 -69 -32 -110 -13 -41 -30 -104 -38
-140 -8 -36 -26 -114 -40 -175 -15 -60 -28 -119 -29 -130 -17 -107 -19 -116
-27 -104 -8 12 -10 12 -18 0 -6 -10 -10 -10 -16 -1 -6 9 -10 9 -16 -1 -6 -10
-9 -6 -9 14 0 15 3 27 8 27 4 0 13 15 20 33 8 17 17 41 22 52 5 11 11 27 14
35 4 8 4 0 1 -18 -2 -18 -1 -31 4 -28 15 10 18 75 4 80 -7 3 -13 0 -13 -6 0
-6 -2 -9 -5 -6 -3 3 -1 16 4 29 7 17 10 19 10 7 1 -21 31 -24 31 -4 0 8 -4 18
-10 21 -13 8 -13 122 1 130 5 4 9 17 8 28 -3 27 10 88 23 103 5 7 10 28 12 48
2 19 8 41 14 48 5 7 12 31 14 54 6 52 14 64 41 64 13 0 17 3 11 8 -16 11 -24
41 -14 47 6 4 10 16 11 28 0 21 1 21 9 2 7 -16 9 -17 9 -3 1 9 4 18 9 20 4 2
15 19 26 38 l18 35 -25 -30 c-39 -47 -40 -25 0 33 36 55 65 66 68 25z m22 -5
c-3 -8 -6 -5 -6 6 -1 11 2 17 5 13 3 -3 4 -12 1 -19z m20 -10 c-3 -8 -6 -5 -6
6 -1 11 2 17 5 13 3 -3 4 -12 1 -19z m821 -74 c0 -18 -5 -24 -15 -20 -8 3 -11
2 -8 -3 3 -5 1 -12 -5 -16 -5 -3 -8 -18 -5 -33 3 -15 2 -21 -1 -14 -3 6 -9 12
-13 12 -23 0 -176 -394 -220 -568 -32 -124 -70 -344 -92 -527 -19 -165 -30
-236 -83 -550 -36 -208 -96 -461 -107 -444 -4 7 -4 16 0 19 12 7 24 80 13 80
-4 0 -13 -5 -20 -12 -7 -7 -12 -8 -12 -2 0 6 3 14 7 17 3 4 7 32 9 62 2 45 -1
55 -15 56 -11 0 -9 3 7 9 29 12 28 20 -3 20 -21 0 -25 -5 -26 -32 -1 -19 -3
-25 -6 -13 -2 11 0 38 6 60 5 24 9 31 10 18 1 -16 7 -23 21 -23 15 0 20 6 19
28 -1 16 -3 20 -6 10 -9 -35 -18 -17 -16 30 2 42 1 44 -7 17 -8 -25 -8 -23 -4
15 2 25 7 111 11 192 5 128 8 146 22 141 11 -3 12 -2 4 4 -28 20 -13 585 16
615 10 11 1 78 -10 78 -5 0 -9 -9 -9 -21 0 -11 -4 -17 -10 -14 -5 3 -10 15
-10 26 0 11 4 18 8 15 18 -11 34 14 36 58 2 25 6 49 9 53 4 3 7 1 7 -6 0 -7 5
-9 10 -6 6 4 9 19 8 35 -2 31 16 60 38 60 8 0 14 2 14 4 0 2 3 11 6 20 4 12 0
16 -17 17 -18 1 -20 2 -6 6 10 3 24 -1 32 -7 12 -10 15 -9 15 8 0 12 8 25 17
31 10 5 14 13 10 17 -5 5 -12 2 -18 -6 -8 -13 -11 -13 -20 3 -6 9 -14 15 -20
12 -5 -4 -9 0 -9 7 0 10 -3 9 -11 -2 -8 -12 -10 -12 -7 -1 5 19 35 23 42 5 9
-24 23 -15 18 12 -3 17 2 31 16 45 28 26 32 24 33 -13 1 -22 3 -26 6 -13 3 11
10 23 17 27 7 5 5 12 -8 21 -13 10 -15 16 -8 21 7 4 12 12 12 17 0 6 -5 7 -11
3 -7 -4 -10 -1 -7 7 5 15 21 16 51 4 12 -5 17 -2 17 9 0 9 -6 16 -12 15 -33
-4 -40 1 -24 16 8 9 20 14 27 13 6 -2 12 6 14 17 1 11 21 46 44 77 37 49 46
56 62 47 11 -5 19 -12 19 -14 0 -8 -25 -1 -33 10 -5 6 -7 4 -4 -5 2 -8 -2 -30
-9 -47 -17 -42 -12 -42 14 -1 18 28 22 30 28 14 4 -11 2 -21 -7 -27 -10 -6
-11 -11 -2 -20 6 -6 16 -8 21 -5 12 7 12 46 1 61 -4 6 2 30 13 54 13 29 23 40
28 31 5 -8 8 -3 8 13 0 21 -3 24 -17 15 -9 -6 -25 -24 -34 -40 -9 -16 -21 -26
-27 -23 -6 4 1 20 17 41 31 41 60 59 65 42 4 -11 34 9 67 45 19 21 19 22 19
-9z m-804 -6 c5 -20 4 -108 -1 -108 -11 0 -28 64 -25 93 5 41 19 49 26 15z
m-267 -300 c-3 -8 -6 -5 -6 6 -1 11 2 17 5 13 3 -3 4 -12 1 -19z m-874 -38
c-10 -10 -18 -17 -19 -16 -1 0 -4 13 -8 28 -6 27 -5 27 19 16 24 -11 24 -12 8
-28z m1568 -33 c-10 -9 -11 -8 -5 6 3 10 9 15 12 12 3 -3 0 -11 -7 -18z
m-1544 -3 c3 -8 1 -20 -6 -27 -8 -8 -11 -8 -11 0 0 6 -3 18 -6 27 -3 9 -1 16
5 16 7 0 14 -7 18 -16z m-7 -64 c0 -5 -2 -10 -4 -10 -3 0 -8 5 -11 10 -3 6 -1
10 4 10 6 0 11 -4 11 -10z m1457 -67 c-9 -9 -20 -14 -24 -10 -3 4 2 14 13 21
25 19 33 10 11 -11z m53 23 c0 -3 -4 -8 -10 -11 -5 -3 -10 -1 -10 4 0 6 5 11
10 11 6 0 10 -2 10 -4z m-850 -54 c-5 -2 -7 -9 -4 -14 4 -7 2 -8 -4 -4 -6 4
-8 14 -5 23 4 11 3 14 -5 9 -13 -8 -17 6 -5 18 4 4 13 -1 21 -11 8 -11 9 -19
2 -21z m830 -12 c0 -5 -2 -10 -4 -10 -3 0 -8 5 -11 10 -3 6 -1 10 4 10 6 0 11
-4 11 -10z m450 6 c0 -3 -4 -8 -10 -11 -5 -3 -10 -1 -10 4 0 6 5 11 10 11 6 0
10 -2 10 -4z m-1140 -26 c0 -5 -7 -7 -15 -4 -8 4 -15 8 -15 10 0 2 7 4 15 4 8
0 15 -4 15 -10z m590 7 c0 -2 -10 -12 -22 -23 l-23 -19 19 23 c18 21 26 27 26
19z m-662 -129 c-13 -26 -15 -22 -10 20 4 29 6 33 12 17 4 -11 3 -28 -2 -37z
m-8 -63 c0 -13 -4 -26 -8 -29 -5 -3 -7 -18 -4 -34 2 -16 -1 -32 -6 -36 -6 -4
-11 14 -14 43 -1 27 0 47 5 44 7 -4 11 12 8 36 -2 7 2 10 8 6 6 -3 11 -17 11
-30z m-693 -87 c-3 -8 -6 -5 -6 6 -1 11 2 17 5 13 3 -3 4 -12 1 -19z m753
-134 c-11 -71 -24 -160 -30 -199 -13 -88 -40 -381 -40 -438 0 -23 -4 -47 -8
-54 -4 -6 -7 17 -7 50 0 74 -8 150 -16 157 -6 5 10 182 17 189 2 2 10 -2 19
-9 13 -11 15 -8 15 23 0 22 -6 37 -15 41 -21 7 -19 23 3 28 15 4 18 16 19 64
0 45 -1 52 -7 29 -5 -23 -7 -16 -6 27 1 31 4 54 9 51 4 -2 7 6 7 19 0 16 3 19
9 10 5 -9 12 6 19 43 7 32 9 62 5 68 -3 6 -1 7 5 3 8 -5 12 1 12 15 0 12 2 20
5 17 3 -3 -4 -63 -15 -134z m257 -56 c-2 -35 -3 -9 -3 57 0 66 1 94 3 63 2
-32 2 -86 0 -120z m-310 120 c-3 -7 -5 -2 -5 12 0 14 2 19 5 13 2 -7 2 -19 0
-25z m-1644 3 c71 -27 212 -254 272 -436 42 -130 77 -328 90 -515 4 -57 13
-160 31 -360 6 -62 -2 -65 -12 -4 -10 67 -22 59 -18 -13 l3 -68 -14 90 c-8 50
-20 122 -26 160 -7 39 -13 83 -14 98 -4 47 -29 147 -36 147 -4 0 -7 10 -7 23
-1 29 -10 82 -22 126 -12 45 -13 60 0 41 5 -8 12 -11 16 -7 4 3 1 13 -6 22 -7
9 -11 18 -8 20 3 3 11 -2 18 -11 11 -13 11 -19 1 -36 -9 -14 -9 -24 -3 -30 13
-13 26 50 18 84 -3 12 -3 17 0 10 3 -6 9 -10 14 -7 4 3 6 -3 3 -14 -3 -10 0
-22 7 -26 8 -5 9 7 4 42 -3 26 -10 50 -15 51 -5 2 -6 9 -2 15 4 7 0 8 -11 4
-14 -5 -17 -2 -15 16 5 39 -10 69 -32 62 -16 -6 -18 -2 -13 24 5 25 2 35 -17
51 -13 10 -18 19 -11 20 6 0 12 5 12 10 0 6 -8 5 -21 -2 -17 -11 -22 -10 -33
5 -7 9 -20 17 -28 17 -9 0 -21 6 -27 13 -13 17 -11 106 4 103 5 -2 7 -1 3 1
-4 2 -4 12 -1 21 6 15 3 14 -15 -2 -20 -18 -22 -18 -22 -2 0 19 -25 69 -48 98
-7 9 -14 23 -16 30 -3 22 -60 128 -68 128 -5 0 -8 5 -8 11 0 11 26 8 73 -10z
m1644 -63 c-3 -7 -5 -2 -5 12 0 14 2 19 5 13 2 -7 2 -19 0 -25z m-50 -60 c-3
-7 -5 -2 -5 12 0 14 2 19 5 13 2 -7 2 -19 0 -25z m-1054 3 c-4 -3 -11 -10 -15
-15 -4 -4 -6 1 -5 12 1 12 6 18 15 15 7 -3 10 -9 5 -12z m3753 -16 c-11 -8
-25 -15 -30 -15 -6 1 0 7 14 15 32 19 40 18 16 0z m-3796 -5 c0 -5 -4 -10 -10
-10 -5 0 -10 5 -10 10 0 6 5 10 10 10 6 0 10 -4 10 -10z m-174 -43 l16 -32
-26 30 c-26 31 -34 51 -16 40 6 -3 17 -21 26 -38z m1267 13 c3 -11 1 -20 -4
-20 -5 0 -9 9 -9 20 0 11 2 20 4 20 2 0 6 -9 9 -20z m-1099 -42 c-4 -6 1 -17
11 -25 11 -7 14 -13 8 -13 -16 0 -36 28 -28 40 3 5 8 10 11 10 3 0 2 -5 -2
-12z m1106 -4 c0 -9 -5 -12 -11 -8 -8 5 -10 -3 -7 -25 2 -17 1 -31 -4 -31 -9
0 -11 41 -2 64 8 21 24 21 24 0z m-1220 -61 c0 -7 4 -13 9 -13 18 0 81 -145
110 -255 41 -150 84 -370 121 -620 39 -255 86 -504 106 -550 18 -44 18 -48 -4
-36 -33 17 -61 153 -117 561 -37 268 -80 504 -115 634 -23 85 -83 232 -105
256 -8 9 -15 21 -15 27 0 6 -7 16 -15 23 -8 7 -15 18 -15 24 1 15 39 -36 40
-51z m1567 0 c-3 -10 -5 -4 -5 12 0 17 2 24 5 18 2 -7 2 -21 0 -30z m-1862
-12 c3 -5 1 -12 -5 -16 -5 -3 -10 1 -10 9 0 18 6 21 15 7z m1505 -33 c0 -19
-2 -20 -10 -8 -13 19 -13 30 0 30 6 0 10 -10 10 -22z m360 -20 c0 -16 -3 -19
-11 -11 -6 6 -8 16 -5 22 11 17 16 13 16 -11z m2140 18 c0 -2 -8 -10 -17 -17
-16 -13 -17 -12 -4 4 13 16 21 21 21 13z m-485 -75 c-3 -3 -10 1 -14 8 -6 9
-11 10 -15 2 -8 -12 18 -44 27 -35 3 3 14 1 24 -5 15 -9 12 -10 -19 -11 -21 0
-38 -5 -38 -11 0 -5 5 -7 11 -4 15 10 61 -4 53 -16 -3 -6 2 -19 11 -30 17 -18
17 -20 -9 -58 -15 -22 -33 -38 -40 -35 -7 3 -19 -3 -27 -13 -13 -16 -12 -17 4
-4 32 26 29 3 -9 -54 -30 -45 -39 -53 -46 -40 -5 8 -6 20 -3 25 3 5 -1 7 -9 4
-14 -5 -14 -8 0 -29 15 -23 13 -28 -46 -124 -34 -56 -66 -99 -71 -95 -5 3 0
15 11 26 21 23 25 34 13 41 -5 2 -2 2 6 0 8 -2 11 2 7 12 -3 8 -1 15 5 15 6 0
7 5 4 10 -3 6 2 13 12 17 27 10 34 25 16 38 -13 10 -13 12 1 24 11 10 13 18 5
39 -8 22 -7 29 11 42 15 11 19 24 16 48 -2 17 1 32 5 32 5 0 9 -6 9 -12 1 -8
7 -5 15 6 8 10 12 23 9 28 -3 5 -2 17 2 26 9 20 11 28 13 43 0 5 6 7 12 3 6
-3 7 -9 3 -13 -5 -3 -11 -15 -12 -25 -3 -17 -1 -18 12 -7 9 7 24 10 38 6 l23
-7 -22 16 c-14 10 -20 23 -16 33 5 13 0 15 -30 11 -21 -2 -37 -2 -37 0 0 14
37 81 54 98 21 21 21 21 29 1 4 -11 5 -22 2 -26z m-4031 -38 c126 -124 201
-305 241 -583 31 -218 75 -429 110 -535 5 -15 4 -16 -3 -6 -14 20 -34 3 -26
-22 4 -15 3 -19 -4 -12 -11 11 -49 132 -82 265 -12 47 -24 92 -26 100 -4 18
-51 186 -60 219 -5 17 -4 22 4 17 7 -4 12 -2 12 3 0 6 -6 11 -14 11 -8 0 -17
7 -20 16 -3 8 -2 12 4 9 12 -8 13 -10 -5 50 -19 61 -65 155 -77 155 -12 0 -10
58 4 83 10 20 10 21 -7 7 -16 -14 -17 -13 -11 8 3 12 9 32 12 43 4 14 2 19 -5
15 -6 -4 -11 -3 -11 3 0 5 -3 17 -7 27 -4 12 -3 15 5 10 24 -15 11 20 -18 47
-16 16 -30 33 -30 39 0 5 -6 16 -12 23 -40 44 -46 55 -30 55 5 0 30 -21 56
-47z m2347 -363 c-10 -118 -19 -190 -20 -160 0 30 6 127 14 215 8 88 16 205
17 260 l2 100 3 -100 c2 -55 -5 -197 -16 -315z m2262 393 c-4 -10 -2 -14 5 -9
16 10 24 -10 8 -23 -11 -9 -15 -7 -19 11 -3 12 -4 25 -1 30 9 14 14 9 7 -9z
m-230 -28 c-3 -9 -8 -14 -10 -11 -3 3 -2 9 2 15 9 16 15 13 8 -4z m212 5 c3
-5 1 -10 -4 -10 -6 0 -11 5 -11 10 0 6 2 10 4 10 3 0 8 -4 11 -10z m-2608 -37
c-3 -10 -5 -4 -5 12 0 17 2 24 5 18 2 -7 2 -21 0 -30z m1070 -20 c-3 -10 -5
-4 -5 12 0 17 2 24 5 18 2 -7 2 -21 0 -30z m1281 -2 c-13 -17 -27 -30 -32 -30
-6 -1 3 13 19 29 37 38 43 39 13 1z m-405 -61 c-3 -11 -7 -20 -9 -20 -2 0 -4
9 -4 20 0 11 4 20 9 20 5 0 7 -9 4 -20z m339 -17 c-56 -73 -182 -301 -182
-332 0 -6 -4 -11 -8 -11 -5 0 -9 -6 -9 -12 0 -34 -225 -509 -244 -516 -5 -2
-9 -11 -9 -20 0 -17 -180 -291 -205 -312 -27 -23 -18 16 13 52 111 131 289
448 391 698 48 116 111 245 161 330 36 61 108 160 116 160 3 0 -8 -17 -24 -37z
m-3589 -33 c-3 -11 -7 -20 -9 -20 -2 0 -4 9 -4 20 0 11 4 20 9 20 5 0 7 -9 4
-20z m2678 -144 c-14 -167 -26 -262 -48 -371 -17 -85 -28 -109 -39 -82 -10 28
-23 19 -30 -20 -4 -21 -14 -44 -22 -53 -14 -13 -15 -13 -8 5 5 11 16 44 25 72
14 44 20 51 31 40 12 -10 12 -9 1 5 -11 15 -11 29 3 82 33 134 75 344 82 416
4 41 9 69 12 61 2 -7 -1 -77 -7 -155z m-314 77 c-3 -10 -5 -4 -5 12 0 17 2 24
5 18 2 -7 2 -21 0 -30z m0 -65 c-3 -7 -5 -2 -5 12 0 14 2 19 5 13 2 -7 2 -19
0 -25z m-3587 -93 c112 -48 209 -137 280 -255 51 -84 104 -204 114 -255 l6
-30 -13 28 c-7 15 -16 25 -20 22 -4 -3 -5 -2 -3 1 3 3 -4 15 -14 26 -10 11
-16 26 -14 33 3 7 0 16 -5 20 -6 3 -9 11 -6 16 3 5 -2 6 -11 2 -11 -4 -15 -3
-10 5 10 17 -20 83 -36 77 -8 -3 -14 4 -14 20 -2 28 -22 58 -34 50 -4 -2 -19
9 -34 24 -18 18 -24 31 -17 35 20 12 12 28 -10 21 -15 -5 -19 -4 -15 4 4 6 3
11 -1 11 -5 0 -17 12 -27 28 -9 15 -15 19 -12 10 3 -12 1 -15 -10 -11 -7 3
-14 9 -14 15 0 5 -5 6 -10 3 -6 -4 -10 -3 -9 2 4 20 -2 34 -12 28 -6 -4 -13 2
-16 14 -3 11 -9 18 -14 15 -9 -5 -40 19 -82 64 -11 12 -27 22 -34 22 -14 0
-17 12 -6 23 3 4 18 -6 32 -21 15 -15 47 -36 71 -47z m3577 18 c-3 -10 -5 -2
-5 17 0 19 2 27 5 18 2 -10 2 -26 0 -35z m853 27 c0 -5 -4 -10 -10 -10 -5 0
-10 5 -10 10 0 6 5 10 10 10 6 0 10 -4 10 -10z m952 -36 c-77 -67 -131 -150
-207 -314 -203 -439 -343 -642 -566 -820 -91 -73 -142 -97 -133 -63 3 11 20
28 37 38 56 33 170 127 239 198 94 97 237 302 302 432 62 125 166 345 166 352
0 27 179 223 204 223 6 0 -13 -21 -42 -46z m-2868 20 c3 -8 2 -12 -4 -9 -6 3
-10 10 -10 16 0 14 7 11 14 -7z m73 -31 c-3 -10 -5 -2 -5 17 0 19 2 27 5 18 2
-10 2 -26 0 -35z m-1607 6 c0 -6 -4 -7 -10 -4 -5 3 -10 11 -10 16 0 6 5 7 10
4 6 -3 10 -11 10 -16z m-331 -59 c11 -24 11 -24 -3 -6 -9 11 -16 24 -16 30 0
12 5 7 19 -24z m2918 -2 c-3 -7 -5 -2 -5 12 0 14 2 19 5 13 2 -7 2 -19 0 -25z
m1339 0 c-9 -12 -16 -19 -16 -15 0 11 24 47 28 42 2 -2 -3 -14 -12 -27z
m-2398 -73 c-3 -3 -9 2 -12 12 -6 14 -5 15 5 6 7 -7 10 -15 7 -18z m1049 3
c-3 -8 -6 -5 -6 6 -1 11 2 17 5 13 3 -3 4 -12 1 -19z m797 -10 c-10 -36 -26
-58 -20 -28 3 14 6 31 6 38 0 6 5 12 11 12 6 0 8 -9 3 -22z m-1777 -10 c-3 -8
-6 -5 -6 6 -1 11 2 17 5 13 3 -3 4 -12 1 -19z m970 -30 c-3 -8 -6 -5 -6 6 -1
11 2 17 5 13 3 -3 4 -12 1 -19z m-970 -35 c-3 -10 -5 -2 -5 17 0 19 2 27 5 18
2 -10 2 -26 0 -35z m1718 -85 c-41 -82 -55 -100 -55 -75 0 9 5 17 10 17 6 0
10 14 10 31 0 16 4 28 9 25 13 -8 27 13 42 64 8 25 15 37 17 28 2 -10 -13 -51
-33 -90z m-3268 30 c-3 -8 -6 -5 -6 6 -1 11 2 17 5 13 3 -3 4 -12 1 -19z
m3769 -24 c-8 -8 -18 -23 -21 -35 -4 -11 -9 -18 -11 -16 -8 8 29 76 38 71 4
-3 2 -12 -6 -20z m-1289 -46 c-3 -8 -6 -5 -6 6 -1 11 2 17 5 13 3 -3 4 -12 1
-19z m-3229 3 c11 -7 10 -9 -3 -14 -9 -4 -13 -3 -10 2 3 5 -3 12 -12 14 -13 3
-14 5 -3 6 8 0 21 -3 28 -8z m3725 -18 c-7 -2 -21 -2 -30 0 -10 3 -4 5 12 5
17 0 24 -2 18 -5z m-733 -13 c0 -5 -5 -10 -11 -10 -5 0 -7 5 -4 10 3 6 8 10
11 10 2 0 4 -4 4 -10z m221 -21 c-5 -13 -10 -19 -10 -12 -1 15 10 45 15 40 3
-2 0 -15 -5 -28z m629 5 c0 -29 -25 -94 -36 -92 -7 2 -13 -1 -12 -7 0 -5 4 -9
9 -7 10 2 11 -5 3 -35 -4 -13 -11 -23 -16 -23 -6 0 -8 7 -5 15 4 8 2 17 -3 20
-6 4 -11 -2 -11 -12 -1 -17 -2 -17 -6 0 -3 12 -11 16 -23 12 -13 -4 -22 1 -30
15 -7 13 -7 20 0 20 5 0 10 5 10 10 0 6 -9 10 -20 10 -11 0 -20 5 -20 10 0 6
9 10 20 10 11 0 20 5 20 10 0 17 -31 24 -41 9 -8 -12 -11 -12 -19 1 -13 19
-13 30 0 30 6 0 10 -5 10 -10 0 -7 11 -5 27 3 24 13 143 22 143 11z m1720 -13
c-57 -23 -135 -37 -105 -20 28 17 96 38 125 38 19 0 14 -4 -20 -18z m-2973
-43 c-3 -8 -6 -5 -6 6 -1 11 2 17 5 13 3 -3 4 -12 1 -19z m604 -5 c-12 -20
-14 -14 -5 12 4 9 9 14 11 11 3 -2 0 -13 -6 -23z m-2931 -27 c0 -12 -5 -7 -19
24 -11 24 -11 24 3 6 9 -11 16 -24 16 -30z m2727 2 c-3 -8 -6 -5 -6 6 -1 11 2
17 5 13 3 -3 4 -12 1 -19z m179 -35 c-8 -15 -15 -25 -16 -21 0 12 23 58 27 54
3 -2 -2 -17 -11 -33z m2471 31 c-3 -3 -12 -4 -19 -1 -8 3 -5 6 6 6 11 1 17 -2
13 -5z m-2124 -32 c-3 -12 -9 -22 -14 -22 -12 0 -11 7 3 30 15 24 19 21 11 -8z
m2082 18 c-3 -5 -14 -10 -23 -9 -14 0 -13 2 3 9 27 11 27 11 20 0z m-4777 -80
c0 -9 -3 -7 -8 5 -5 11 -8 29 -8 40 0 16 2 15 8 -5 4 -14 8 -32 8 -40z m4778
48 c4 -6 3 -8 -4 -4 -6 3 -13 2 -17 -4 -3 -5 -16 -10 -28 -10 -18 0 -20 -2 -7
-11 13 -9 12 -10 -2 -5 -10 3 -20 1 -24 -5 -3 -6 -13 -8 -21 -4 -13 5 -14 3
-3 -11 14 -16 13 -19 -32 -45 -13 -7 -18 -6 -18 2 0 8 -4 8 -15 -1 -8 -7 -15
-18 -15 -24 0 -6 4 -4 10 4 5 8 12 11 16 7 9 -9 -16 -38 -27 -31 -5 3 -9 1 -9
-4 0 -19 13 -20 39 -4 19 12 16 6 -12 -21 -36 -37 -39 -38 -52 -20 -11 13 -14
14 -15 4 0 -11 -3 -12 -11 -4 -9 9 5 31 56 87 37 42 68 76 69 76 1 0 26 9 56
20 30 10 56 19 57 20 1 0 5 -5 9 -12z m-2779 -30 c-3 -8 -6 -5 -6 6 -1 11 2
17 5 13 3 -3 4 -12 1 -19z m324 -15 c-12 -20 -14 -14 -5 12 4 9 9 14 11 11 3
-2 0 -13 -6 -23z m-2314 -45 c-3 -8 -6 -5 -6 6 -1 11 2 17 5 13 3 -3 4 -12 1
-19z m2266 -48 c-46 -83 -156 -225 -216 -279 -45 -41 -30 -16 23 38 56 57 142
171 184 244 37 63 45 61 9 -3z m687 20 c0 -5 -2 -10 -4 -10 -3 0 -8 5 -11 10
-3 6 -1 10 4 10 6 0 11 -4 11 -10z m-18 -60 c-2 -16 -6 -30 -8 -30 -2 0 -4 14
-4 30 0 17 4 30 8 30 5 0 7 -13 4 -30z m-3382 -130 c58 -146 90 -206 152 -288
75 -98 248 -217 342 -237 19 -4 26 -9 19 -16 -15 -15 -109 21 -180 67 -32 21
-99 79 -148 128 -95 96 -151 184 -182 288 -14 50 -43 120 -64 160 -11 22 -12
56 -1 43 5 -6 33 -71 62 -145z m1455 75 c58 -87 64 -98 28 -58 -24 27 -97 148
-81 133 3 -3 27 -36 53 -75z m2535 -5 c0 -5 -4 -10 -10 -10 -5 0 -10 5 -10 10
0 6 5 10 10 10 6 0 10 -4 10 -10z m-905 -36 c-17 -41 -75 -118 -83 -110 -3 3
7 23 22 43 16 21 37 53 48 71 26 42 32 41 13 -4z m1866 3 c-13 -12 -20 -15
-16 -7 14 26 28 41 33 35 3 -3 -5 -16 -17 -28z m-3210 6 c13 -16 12 -17 -3 -4
-10 7 -18 15 -18 17 0 8 8 3 21 -13z m2229 -18 c0 -8 -4 -15 -10 -15 -5 0 -7
7 -4 15 4 8 8 15 10 15 2 0 4 -7 4 -15z m-3441 -40 c24 -54 73 -129 114 -172
17 -18 26 -33 19 -33 -18 0 -123 147 -144 202 -23 60 -16 63 11 3z m2389 -20
c-2 -1 -19 -6 -38 -10 l-35 -7 35 37 35 36 3 -26 c2 -15 2 -28 0 -30z m-1077
-52 c16 -24 27 -43 22 -43 -4 1 -30 33 -56 73 -48 71 -25 51 34 -30z m2189 93
c0 -3 -4 -8 -10 -11 -5 -3 -10 -1 -10 4 0 6 5 11 10 11 6 0 10 -2 10 -4z
m-1116 -179 c4 -17 16 -31 31 -37 14 -5 25 -14 25 -20 0 -6 9 -6 26 1 15 5 27
8 28 7 10 -18 29 -101 29 -128 0 -19 2 -29 4 -22 3 6 13 12 24 12 21 0 25 -14
33 -102 4 -50 2 -59 -20 -79 -21 -20 -26 -21 -34 -9 -14 22 -12 53 6 78 8 12
11 22 5 22 -5 0 -15 -8 -20 -17 -9 -15 -12 -16 -20 -4 -6 10 -5 24 5 42 20 39
17 45 -7 18 l-20 -24 5 34 c5 29 4 32 -9 21 -18 -15 -20 -2 -5 50 9 32 8 34
-6 15 -13 -17 -16 -18 -24 -5 -11 17 -13 28 -11 50 2 13 1 13 -8 0 -8 -12 -13
-12 -30 4 -12 11 -21 31 -22 45 -1 23 -2 22 -20 -14 -16 -35 -19 -37 -19 -15
l0 25 -21 -25 c-12 -14 -19 -18 -16 -8 7 21 -2 30 -18 15 -6 -6 -10 -19 -7
-29 2 -10 -1 -18 -7 -18 -6 0 -11 7 -11 15 0 8 -4 15 -10 15 -5 0 -10 -5 -10
-11 0 -5 -4 -7 -10 -4 -5 3 -10 17 -10 31 0 46 -18 15 -26 -44 -4 -31 -9 -48
-11 -37 -3 11 -6 27 -9 35 -8 23 -24 -8 -24 -50 -1 -34 -2 -34 -12 -10 -17 40
-10 77 22 122 17 22 30 47 30 55 0 11 7 9 26 -6 15 -12 36 -21 48 -21 12 0 27
-5 34 -12 9 -9 12 -9 12 3 0 14 74 83 77 71 1 -4 4 -20 7 -35z m-1434 -20 c16
4 20 1 20 -18 0 -13 3 -34 6 -45 5 -17 0 -22 -21 -26 -20 -4 -29 -1 -36 16 -8
17 -9 16 -6 -12 3 -25 0 -32 -10 -28 -8 3 -12 2 -9 -2 2 -4 -2 -15 -9 -25 -13
-18 -14 -18 -25 0 -9 15 -10 12 -6 -17 l6 -35 -20 25 -20 25 10 -28 c14 -39
12 -45 -7 -22 l-15 20 5 -20 c2 -11 8 -28 12 -37 4 -10 3 -18 -3 -18 -5 0 -15
14 -22 30 -10 24 -10 37 -1 56 6 14 11 37 11 52 0 18 3 23 8 14 5 -7 16 -10
24 -7 11 4 18 -1 23 -15 4 -12 9 -19 12 -17 2 3 -1 24 -8 47 -11 37 -11 44 4
55 9 7 17 25 17 40 l0 29 20 -21 c12 -14 27 -19 40 -16z m160 -88 c27 -35 50
-74 50 -86 0 -19 -4 -18 -40 16 -22 20 -40 44 -40 53 0 24 -11 48 -21 48 -5 0
-9 -12 -9 -27 -1 -26 -2 -26 -14 -10 -7 9 -20 15 -29 12 -11 -5 -16 3 -22 31
-14 78 50 59 125 -37z m1797 35 c9 -23 -2 -26 -49 -13 -54 16 -58 19 -47 47
l9 23 40 -21 c23 -12 44 -28 47 -36z m-2342 27 c31 -5 40 -10 40 -26 0 -24
-71 -53 -89 -35 -14 14 -37 13 -33 -2 4 -21 -62 -23 -70 -2 -10 26 61 87 90
78 12 -4 40 -10 62 -13z m67 -23 c-8 -8 -9 -4 -5 13 4 13 8 18 11 10 2 -7 -1
-18 -6 -23z m1478 17 c-7 -9 -15 -13 -19 -10 -3 3 1 10 9 15 21 14 24 12 10
-5z m-2879 -210 c35 -33 98 -98 139 -145 129 -147 213 -208 347 -252 58 -18
81 -20 181 -15 127 7 141 -5 28 -23 -117 -18 -249 12 -369 85 -74 45 -191 159
-281 273 -26 34 -69 81 -94 105 -63 57 -143 137 -167 167 -11 14 19 -11 65
-55 47 -44 115 -107 151 -140z m2436 194 c73 -33 77 -35 80 -45 2 -5 -3 -19
-11 -29 -14 -19 -16 -19 -33 -2 -10 10 -13 17 -5 17 19 0 14 19 -5 19 -10 1
-46 4 -81 7 -54 6 -61 8 -50 21 10 12 35 26 55 32 1 1 24 -9 50 -20z m-1397 1
c0 -5 -4 -10 -10 -10 -5 0 -10 5 -10 10 0 6 5 10 10 10 6 0 10 -4 10 -10z
m1195 -38 c18 -10 15 -12 -22 -18 -39 -6 -42 -9 -37 -30 4 -13 2 -24 -4 -24
-5 0 -13 12 -16 26 -4 15 -10 24 -13 21 -3 -3 -1 -20 5 -36 14 -40 2 -39 -27
0 -24 32 -21 65 5 55 8 -3 12 -2 9 4 -3 5 2 18 11 29 17 19 18 19 43 2 14 -10
35 -23 46 -29z m-1644 21 c13 -16 12 -17 -3 -4 -10 7 -18 15 -18 17 0 8 8 3
21 -13z m559 -9 c14 -37 14 -37 -35 -57 -25 -11 -45 -23 -45 -27 0 -14 -70
-52 -85 -46 -18 6 -19 50 -4 94 9 27 17 32 57 38 26 4 56 10 67 15 31 12 35
11 45 -17z m2653 -22 c35 -32 74 -98 65 -107 -2 -2 -21 12 -43 31 -22 19 -60
46 -85 61 -25 14 -46 27 -48 28 -1 1 1 10 4 20 11 26 62 11 107 -33z m-1167 0
c14 -20 13 -24 -3 -45 l-18 -24 -10 21 c-7 14 -20 20 -36 19 -32 -2 -38 34 -7
46 33 12 57 6 74 -17z m39 -30 c-8 -2 -11 -10 -8 -18 5 -14 -13 -48 -40 -75
-7 -8 -17 -21 -20 -29 -4 -8 -5 -2 -2 14 7 36 34 78 46 70 5 -3 6 2 3 10 -3 8
0 24 6 37 10 17 14 19 21 8 6 -9 4 -15 -6 -17z m2135 24 c0 -3 -4 -8 -10 -11
-5 -3 -10 -1 -10 4 0 6 5 11 10 11 6 0 10 -2 10 -4z m-4602 -102 c-3 -2 -11 7
-18 21 -7 14 -17 25 -22 25 -4 0 -8 8 -8 17 0 11 9 4 26 -20 14 -21 24 -40 22
-43z m2655 55 c-6 -6 -8 -26 -6 -46 5 -33 4 -34 -16 -23 -13 6 -19 16 -14 23
4 8 1 7 -9 -1 -9 -8 -14 -20 -11 -28 3 -9 0 -12 -8 -9 -8 3 -23 -8 -34 -25
-17 -25 -22 -27 -33 -16 -11 11 -9 22 12 64 24 47 29 51 71 57 25 4 45 12 45
18 0 6 3 7 7 4 4 -4 2 -12 -4 -18z m1887 -22 c0 -2 -17 -19 -37 -38 l-38 -34
34 38 c33 34 41 42 41 34z m-2169 -54 c-11 -21 -20 -35 -21 -31 0 12 33 78 38
74 2 -2 -6 -21 -17 -43z m-1617 12 c19 -14 19 -15 1 -49 -10 -19 -28 -37 -39
-40 -16 -5 -18 -8 -8 -14 22 -15 -9 -75 -34 -65 -13 5 -34 61 -34 91 0 12 79
92 90 92 3 -1 14 -7 24 -15z m1031 -15 c5 0 17 7 27 17 17 15 18 14 12 -28 -5
-38 -1 -51 26 -93 35 -54 35 -92 0 -61 -11 10 -20 24 -20 30 0 7 -7 15 -15 19
-8 3 -15 12 -15 20 0 7 -13 28 -30 46 -17 18 -30 43 -30 58 0 24 1 24 18 9 10
-10 22 -17 27 -17z m1955 4 c36 -24 40 -31 40 -70 0 -72 -10 -82 -36 -39 -12
21 -20 44 -17 51 3 8 -1 14 -11 14 -19 0 -50 45 -41 60 10 15 22 12 65 -16z
m-316 7 c3 -5 0 -11 -8 -14 -15 -6 -26 1 -26 15 0 11 27 10 34 -1z m-2204 -41
c0 -5 -7 -10 -15 -10 -8 0 -15 5 -15 10 0 6 7 10 15 10 8 0 15 -4 15 -10z
m2178 -7 c2 -9 -9 -13 -37 -13 -30 0 -41 4 -41 16 0 11 9 14 37 12 20 -2 38
-9 41 -15z m1262 6 c0 -9 -149 -162 -218 -223 -30 -27 -46 -36 -53 -29 -8 8
-7 13 2 18 8 5 10 4 5 -3 -13 -21 5 -13 34 15 16 15 26 32 23 37 -4 6 -3 8 2
4 8 -8 129 117 156 162 15 24 49 38 49 19z m-3290 -13 c0 -8 -4 -17 -10 -21
-5 -3 -6 -13 -3 -22 4 -11 3 -14 -5 -9 -13 8 -16 48 -5 59 11 12 23 8 23 -7z
m-270 -10 c0 -16 -33 -27 -50 -16 -7 4 -9 13 -6 19 10 16 56 14 56 -3z m3339
11 c-2 -1 -13 -9 -24 -17 -19 -14 -19 -14 -6 3 7 9 18 17 24 17 6 0 8 -1 6 -3z
m-1919 -32 c0 -8 -4 -15 -9 -15 -5 0 -15 -16 -21 -35 -9 -29 -16 -35 -31 -30
-21 7 -25 -5 -7 -23 9 -9 7 -13 -5 -18 -13 -4 -15 -13 -10 -32 6 -26 6 -26
-18 -11 -25 17 -37 66 -22 93 9 16 103 86 115 86 5 0 8 -7 8 -15z m1031 5 c5
0 9 -4 9 -10 0 -5 -13 -10 -30 -10 -29 0 -38 9 -23 24 4 3 13 4 21 1 7 -3 18
-5 23 -5z m-663 -19 c20 -11 59 -45 87 -78 27 -32 42 -52 33 -45 -28 23 -96
24 -138 2 -66 -34 -114 -107 -141 -215 -10 -38 -18 -61 -18 -50 -1 20 -51 53
-51 33 0 -5 -4 -7 -9 -3 -5 3 -12 1 -16 -5 -4 -7 -12 -7 -24 0 -10 5 -21 6
-25 3 -17 -17 -3 85 22 154 43 121 114 197 201 214 20 4 37 7 39 8 1 0 19 -8
40 -18z m-1918 -21 c13 -9 13 -11 0 -20 -22 -14 -50 -12 -50 3 0 27 23 35 50
17z m2275 -4 c13 -9 16 -19 10 -32 -4 -10 -7 -28 -6 -39 1 -15 0 -17 -7 -7
-11 16 -32 -58 -32 -112 0 -48 -18 -92 -31 -79 -8 8 -8 17 0 31 6 11 9 49 6
86 -4 69 1 100 16 90 5 -3 9 -1 9 5 0 5 -4 13 -10 16 -5 3 -10 17 -10 31 0 28
25 32 55 10z m73 3 c14 0 13 -2 -3 -9 -31 -13 -45 -11 -45 6 0 11 5 14 16 10
9 -3 23 -6 32 -7z m-2113 -9 c4 -6 -7 -10 -24 -10 -17 0 -31 5 -31 10 0 6 11
10 24 10 14 0 28 -4 31 -10z m396 -16 c50 -21 113 -118 134 -207 17 -74 12
-173 -10 -204 -11 -15 -13 -15 -19 5 -10 31 -23 27 -46 -15 -12 -21 -18 -29
-14 -18 19 57 22 104 9 170 -17 91 -27 116 -65 158 -53 61 -139 71 -218 26
l-33 -19 43 51 c23 28 54 57 68 65 29 16 93 11 151 -12z m1864 16 c4 -6 -7
-10 -24 -10 -17 0 -31 5 -31 10 0 6 11 10 24 10 14 0 28 -4 31 -10z m-2133
-47 c-9 -14 -10 -14 -16 5 -9 29 3 51 16 28 5 -10 5 -23 0 -33z m3982 17 c5
-5 7 -12 5 -15 -9 -9 -119 -13 -113 -4 3 5 -1 6 -9 3 -17 -6 -32 26 -17 36 14
9 122 -8 134 -20z m-1464 -12 c33 -55 35 -84 5 -133 -31 -54 -45 -57 -45 -10
0 48 1 50 11 48 17 -5 9 16 -9 26 -10 5 -23 25 -29 44 -9 31 -8 36 11 45 32
16 35 15 56 -20z m-212 5 c2 -9 -7 -13 -27 -13 -21 0 -31 5 -31 16 0 19 51 16
58 -3z m632 13 c0 -3 -4 -8 -10 -11 -5 -3 -10 -1 -10 4 0 6 5 11 10 11 6 0 10
-2 10 -4z m-3583 -52 c-10 -54 30 -154 81 -198 18 -16 31 -35 28 -42 -3 -8 1
-14 11 -14 27 0 82 -40 77 -55 -11 -28 -42 -26 -92 5 -27 16 -54 30 -61 30 -7
0 -11 19 -11 48 0 42 -3 50 -24 60 -15 7 -36 35 -55 76 -27 56 -30 68 -20 90
9 19 20 26 42 26 26 0 29 -3 24 -26z m2700 10 c2 -5 -14 -11 -36 -12 -28 -2
-40 2 -45 13 -5 13 1 16 36 13 23 -2 43 -8 45 -14z m-2336 -9 c0 -5 -9 -11
-21 -13 -20 -3 -27 8 -13 22 10 9 34 3 34 -9z m4109 6 c0 -9 -24 -21 -41 -21
-5 0 -9 4 -9 10 0 5 7 7 15 4 8 -4 15 -1 15 5 0 6 5 11 10 11 6 0 10 -4 10 -9z
m-1025 -16 c-16 -8 -37 -14 -45 -14 -8 0 1 7 20 14 46 18 64 17 25 0z m-2162
-65 c30 -73 29 -90 -9 -110 -27 -15 -33 -36 -8 -26 14 6 15 4 4 -9 -12 -15
-14 -15 -24 2 -16 27 -16 42 0 36 8 -3 14 0 14 6 0 6 -5 11 -12 11 -6 0 -8 3
-5 6 4 4 13 1 22 -6 19 -16 19 0 0 25 -31 41 -75 110 -75 120 0 6 15 11 33 12
31 1 33 -2 60 -67z m3117 55 c-7 -8 -16 -13 -20 -10 -5 3 -11 1 -15 -5 -3 -5
-12 -10 -18 -10 -16 1 35 40 52 40 11 0 11 -3 1 -15z m-1819 -15 c16 0 29 -4
29 -10 0 -5 -13 -10 -30 -10 -16 0 -30 2 -30 4 0 2 -2 10 -3 18 -2 7 -2 10 0
6 3 -5 18 -8 34 -8z m289 4 c0 -11 -8 -14 -32 -12 -46 4 -49 28 -4 28 26 0 36
-4 36 -16z m440 -2 c0 -15 -11 -21 -27 -15 -12 5 -12 7 -1 14 17 11 28 11 28
1z m520 -11 c0 -18 -27 -37 -38 -26 -5 4 26 45 35 45 1 0 3 -9 3 -19z m-3552
-8 c2 -8 -6 -13 -22 -13 -28 0 -43 15 -24 23 20 8 41 3 46 -10z m4043 -6 c-6
-8 -8 -17 -4 -21 4 -4 0 -4 -10 0 -12 4 -17 1 -17 -11 0 -11 -5 -15 -14 -12
-9 4 -28 -7 -45 -22 -17 -16 -33 -26 -36 -23 -3 3 -5 -2 -5 -10 0 -18 -26 -32
-34 -19 -6 9 16 27 108 93 53 38 77 48 57 25z m-2591 -12 c17 -21 4 -48 -20
-42 -21 5 -28 -7 -10 -18 19 -12 11 -38 -10 -32 -22 6 -27 -12 -9 -30 8 -8 8
-17 -1 -32 -10 -19 -13 -20 -26 -6 -9 8 -19 13 -24 10 -12 -8 -21 24 -14 53 6
25 80 112 95 112 4 0 12 -7 19 -15z m-1245 -5 c18 -8 17 -9 -7 -9 -16 -1 -28
4 -28 9 0 12 8 12 35 0z m2265 -20 c13 -8 13 -9 0 -14 -8 -2 -23 -6 -32 -9
-17 -6 -42 15 -31 26 9 10 46 8 63 -3z m223 3 c12 -11 -14 -33 -39 -33 -25 0
-34 24 -11 33 18 8 43 8 50 0z m-2595 -15 c-5 -16 -48 -24 -48 -10 0 11 17 20
38 21 8 1 12 -5 10 -11z m3312 8 c0 -2 -16 -13 -35 -25 -19 -11 -35 -17 -35
-12 0 4 15 15 33 24 37 18 37 18 37 13z m-1072 -22 c32 -9 27 -24 -8 -24 -20
0 -30 5 -30 15 0 17 4 18 38 9z m-2303 -44 c-3 -5 -12 -10 -20 -10 -8 0 -17 5
-20 10 -4 6 5 10 20 10 15 0 24 -4 20 -10z m2545 0 c0 -12 -45 -24 -59 -15
-22 13 -10 25 24 25 19 0 35 -4 35 -10z m302 -7 c43 -50 30 -83 -50 -130 -40
-24 -45 -24 -60 -10 -14 15 -14 18 3 37 11 13 25 18 37 14 12 -3 18 0 18 9 0
9 -5 17 -11 19 -9 3 -8 14 2 41 14 41 37 48 61 20z m-1712 -3 c0 -5 -2 -10 -4
-10 -3 0 -8 5 -11 10 -3 6 -1 10 4 10 6 0 11 -4 11 -10z m-2220 -60 c28 -27
50 -46 50 -43 0 4 3 4 6 1 3 -4 -2 -18 -11 -32 -11 -16 -13 -26 -6 -26 6 0 11
6 11 14 0 25 20 29 43 9 29 -25 111 -64 167 -80 l45 -12 -52 1 c-29 1 -50 5
-47 10 3 4 -7 13 -21 18 -37 14 -40 13 -21 -9 23 -26 6 -35 -50 -26 -28 4 -44
2 -44 -4 0 -6 -7 -11 -17 -11 -9 0 -13 3 -10 7 4 3 0 17 -8 30 -9 13 -13 27
-11 32 3 5 -1 14 -9 21 -8 7 -15 21 -15 31 0 10 -4 21 -10 24 -5 3 -10 13 -10
22 0 8 -9 28 -21 44 -31 43 -14 35 41 -21z m1270 40 c0 -5 -13 -10 -30 -10
-16 0 -30 5 -30 10 0 6 14 10 30 10 17 0 30 -4 30 -10z m2200 -9 c0 -10 -24
-21 -46 -21 -8 0 -14 7 -14 15 0 10 10 15 30 15 17 0 30 -4 30 -9z m1429 -7
c-7 -9 -24 -20 -37 -25 -14 -5 -20 -14 -16 -21 5 -7 3 -8 -6 -3 -9 6 -4 15 20
36 35 31 61 39 39 13z m-1284 -4 c-3 -5 -15 -10 -26 -10 -11 0 -17 5 -14 10 3
6 15 10 26 10 11 0 17 -4 14 -10z m-1628 -24 c-5 -16 -27 -19 -27 -3 0 7 7 14
15 14 9 0 14 -5 12 -11z m1493 -6 c0 -5 -7 -10 -15 -10 -8 0 -15 5 -15 10 0 6
7 10 15 10 8 0 15 -4 15 -10z m-1460 -4 c0 -3 -4 -8 -10 -11 -5 -3 -10 -1 -10
4 0 6 5 11 10 11 6 0 10 -2 10 -4z m375 -6 c3 -5 1 -10 -4 -10 -6 0 -11 5 -11
10 0 6 2 10 4 10 3 0 8 -4 11 -10z m1586 -17 c-12 -20 -14 -14 -5 12 4 9 9 14
11 11 3 -2 0 -13 -6 -23z m196 21 c-3 -3 -12 -4 -19 -1 -8 3 -5 6 6 6 11 1 17
-2 13 -5z m-2670 -26 c-3 -8 -6 -5 -6 6 -1 11 2 17 5 13 3 -3 4 -12 1 -19z
m3313 8 c0 -2 -8 -10 -17 -17 -16 -13 -17 -12 -4 4 13 16 21 21 21 13z m-1600
-26 c-6 -11 -13 -20 -16 -20 -2 0 0 9 6 20 6 11 13 20 16 20 2 0 0 -9 -6 -20z
m-665 0 c-3 -5 -10 -10 -16 -10 -5 0 -9 5 -9 10 0 6 7 10 16 10 8 0 12 -4 9
-10z m1259 -55 c-4 -42 -21 -53 -96 -60 -67 -7 -72 -6 -89 16 -28 36 -23 42
26 37 24 -3 45 -3 47 1 2 3 21 15 43 27 48 25 74 17 69 -21z m-2784 20 c17 -9
30 -19 30 -24 0 -4 12 -8 28 -8 15 0 41 -6 57 -13 17 -7 34 -12 39 -11 4 1 14
-3 21 -9 8 -6 22 -10 32 -8 14 2 17 -2 15 -19 -4 -28 14 -30 28 -3 16 30 30
24 30 -14 0 -30 -4 -34 -32 -40 -28 -6 -37 -1 -75 36 -33 33 -46 39 -55 30 -7
-7 -35 -12 -62 -12 -48 1 -53 4 -89 45 -51 60 -35 85 33 50z m-253 -47 c-38
-64 -131 -148 -232 -210 -49 -30 -97 -58 -105 -62 -34 -17 40 37 105 76 87 52
156 116 207 191 45 67 64 70 25 5z m1158 22 c3 -5 1 -10 -4 -10 -6 0 -11 5
-11 10 0 6 2 10 4 10 3 0 8 -4 11 -10z m2086 -21 c15 -10 32 -19 38 -19 6 0
11 -4 11 -10 0 -5 11 -12 25 -16 14 -3 25 -10 25 -15 0 -5 7 -9 15 -9 8 0 15
-4 15 -9 0 -6 -30 5 -67 23 -38 18 -78 36 -89 40 -12 4 -30 16 -40 28 -19 21
-19 21 10 14 17 -4 42 -16 57 -27z m-1732 11 c30 0 58 -21 78 -57 15 -27 29
-111 17 -100 -5 5 -9 12 -9 15 -5 73 -40 119 -98 129 -49 8 -84 -3 -113 -34
-13 -14 -24 -22 -24 -16 0 14 52 60 75 66 11 2 26 3 33 1 8 -2 26 -4 41 -4z
m1315 -22 c22 -30 21 -34 -16 -56 -29 -17 -41 -19 -98 -11 -84 12 -86 13 -92
43 -5 23 -1 26 30 32 26 5 38 3 47 -9 10 -14 13 -14 28 4 24 27 81 26 101 -3z
m-226 -30 c2 -19 -2 -28 -17 -33 -21 -6 -81 19 -81 34 0 17 25 19 42 4 20 -18
40 -9 31 14 -4 11 -2 14 8 11 8 -2 15 -16 17 -30z m498 17 c-11 -8 -25 -15
-30 -15 -6 1 0 7 14 15 32 19 40 18 16 0z m-3761 -26 c12 -19 -5 -23 -22 -6
-16 16 -16 17 -1 17 9 0 20 -5 23 -11z m30 -9 c3 -5 1 -10 -4 -10 -6 0 -11 5
-11 10 0 6 2 10 4 10 3 0 8 -4 11 -10z m2994 -56 c-11 -27 -32 -85 -45 -129
-40 -133 -79 -202 -137 -239 -37 -25 -34 -3 3 24 17 12 30 26 30 32 0 6 14 32
30 58 17 26 37 76 44 111 16 76 42 143 70 183 28 41 31 19 5 -40z m-3059 40
c0 -8 -5 -12 -10 -9 -6 4 -8 11 -5 16 9 14 15 11 15 -7z m4340 6 c0 -5 -5 -10
-11 -10 -5 0 -7 5 -4 10 3 6 8 10 11 10 2 0 4 -4 4 -10z m-4065 -10 c-3 -5
-12 -10 -18 -10 -7 0 -6 4 3 10 19 12 23 12 15 0z m3883 -17 c-10 -2 -26 -2
-35 0 -10 3 -2 5 17 5 19 0 27 -2 18 -5z m-3953 -13 c-28 -12 -37 -12 -30 0 3
6 16 10 28 9 21 0 21 -1 2 -9z m3509 -50 c8 -26 22 -61 32 -77 14 -22 14 -25
2 -13 -22 21 -68 111 -68 133 0 32 19 8 34 -43z m-1496 34 c12 -8 29 -29 38
-46 15 -29 16 -29 35 -12 10 9 19 12 19 6 0 -6 -5 -14 -11 -18 -6 -3 -24 -27
-40 -52 -33 -52 -40 -46 -8 7 l20 34 -29 36 c-40 49 -81 53 -122 12 -34 -34
-40 -26 -10 12 18 22 34 30 75 36 6 0 21 -6 33 -15z m-2061 0 c-3 -3 -12 -4
-19 -1 -8 3 -5 6 6 6 11 1 17 -2 13 -5z m2723 -2 c0 -12 -49 -62 -63 -64 -31
-4 -67 -5 -67 -2 0 2 22 15 49 29 27 13 52 29 56 35 7 12 25 14 25 2z m-1863
-59 c-3 -10 -5 -2 -5 17 0 19 2 27 5 18 2 -10 2 -26 0 -35z m1878 -12 c-8 -17
-22 -31 -29 -31 -7 0 -25 -9 -40 -21 -18 -14 -26 -16 -26 -7 1 7 19 25 41 41
22 15 45 39 52 54 9 19 13 22 15 11 2 -9 -4 -30 -13 -47z m470 9 c7 -32 -1
-54 -16 -45 -12 8 -12 75 0 75 5 0 12 -13 16 -30z m545 -15 c19 -19 32 -35 29
-35 -3 0 -20 16 -39 35 -19 19 -32 35 -29 35 3 0 20 -16 39 -35z m450 6 c0 -5
-11 -12 -24 -15 -13 -3 -32 -8 -43 -11 -10 -3 0 3 22 14 49 24 45 23 45 12z
m-3380 -100 c-40 -80 -48 -79 -10 2 17 34 31 69 31 77 1 12 2 11 6 -2 2 -9
-10 -44 -27 -77z m630 68 c12 -7 11 -8 -6 -9 -11 0 -29 7 -40 16 -18 14 -18
15 6 8 14 -3 32 -10 40 -15z m569 -61 l-2 -83 -9 68 c-9 64 -6 97 7 97 3 0 4
-37 4 -82z m2186 62 c3 -5 1 -10 -4 -10 -6 0 -11 5 -11 10 0 6 2 10 4 10 3 0
8 -4 11 -10z m-404 -37 c13 -16 12 -17 -3 -4 -17 13 -22 21 -14 21 2 0 10 -8
17 -17z m-180 -25 c11 -21 11 -22 -4 -9 -10 7 -17 17 -17 22 0 15 9 10 21 -13z
m-1762 -23 c17 -20 31 -39 31 -43 0 -4 -10 5 -21 21 -32 42 -54 51 -84 31 -14
-9 -32 -29 -40 -43 -8 -14 -14 -21 -15 -14 0 20 60 83 80 83 10 0 32 -16 49
-35z m1348 13 c-3 -8 -6 -5 -6 6 -1 11 2 17 5 13 3 -3 4 -12 1 -19z m-3047 -5
c-14 -9 -47 -35 -74 -57 -27 -22 -47 -35 -45 -29 5 14 120 102 134 103 5 0 -2
-8 -15 -17z m2167 -25 c27 -26 33 -39 32 -72 l-2 -41 -7 44 c-9 58 -50 96 -93
87 -16 -3 -37 -6 -47 -6 -30 0 -62 -34 -70 -76 -6 -32 -8 -34 -9 -11 -4 103
118 150 196 75z m-266 1 c-5 -13 -10 -19 -10 -12 -1 15 10 45 15 40 3 -2 0
-15 -5 -28z m-664 15 c-3 -3 -12 -4 -19 -1 -8 3 -5 6 6 6 11 1 17 -2 13 -5z
m56 -1 c-7 -2 -19 -2 -25 0 -7 3 -2 5 12 5 14 0 19 -2 13 -5z m-855 -15 c-2
-7 -11 -16 -22 -21 -10 -4 -16 -13 -12 -22 3 -8 -2 -22 -11 -30 -27 -28 -7
-27 26 0 17 15 31 23 31 18 0 -5 -9 -15 -20 -23 -11 -8 -20 -20 -20 -28 0 -7
-5 -10 -12 -6 -6 4 -8 3 -4 -4 3 -6 -6 -28 -20 -49 -20 -28 -24 -32 -19 -13 7
21 6 23 -7 12 -12 -10 -18 -9 -28 3 -7 8 -19 15 -26 15 -8 0 -14 4 -14 10 0 5
-8 7 -17 3 -10 -3 7 14 37 38 30 24 57 46 60 49 11 12 72 60 76 60 2 0 3 -6 2
-12z m2641 -51 c12 -38 14 -54 6 -47 -7 6 -15 23 -19 38 -3 15 -9 38 -12 52
-13 46 6 14 25 -43z m412 46 c13 -16 12 -17 -3 -4 -17 13 -22 21 -14 21 2 0
10 -8 17 -17z m-1794 -41 c20 -26 15 -34 -7 -12 -24 24 -53 26 -70 5 -7 -9
-15 -13 -18 -10 -3 3 3 14 13 26 22 23 60 19 82 -9z m428 0 c10 -15 13 -22 5
-15 -8 6 -28 13 -45 15 -26 3 -31 -1 -42 -32 -11 -33 -12 -34 -12 -7 -1 30 30
67 57 67 9 0 26 -13 37 -28z m-1517 -17 c-6 -14 -15 -25 -20 -25 -5 0 -1 11 8
25 9 14 18 25 20 25 2 0 -2 -11 -8 -25z m1142 -10 c0 -5 -5 -3 -10 5 -5 8 -10
20 -10 25 0 6 5 3 10 -5 5 -8 10 -19 10 -25z m-1476 -6 c-27 -30 -51 -41 -60
-27 -4 6 -3 9 2 5 5 -3 23 6 39 19 37 29 44 31 19 3z m1553 -16 c-3 -10 -5 -4
-5 12 0 17 2 24 5 18 2 -7 2 -21 0 -30z m70 5 c-3 -7 -5 -2 -5 12 0 14 2 19 5
13 2 -7 2 -19 0 -25z m832 -68 c1 -13 0 -13 -9 0 -5 8 -9 26 -9 40 l1 25 8
-25 c4 -14 8 -32 9 -40z m876 42 c-3 -3 -11 0 -18 7 -9 10 -8 11 6 5 10 -3 15
-9 12 -12z m-3041 -4 c-4 -7 -18 -27 -31 -44 -13 -17 -37 -55 -53 -85 -27 -50
-44 -55 -19 -6 16 31 99 147 105 147 3 0 2 -6 -2 -12z m-575 -41 c-14 -12 -36
-29 -49 -37 -13 -8 -32 -25 -43 -37 -11 -13 -24 -23 -29 -23 -15 0 36 49 88
84 57 40 70 44 33 13z m1204 -20 c15 -10 53 -24 85 -32 l57 -15 -55 5 c-56 5
-130 46 -138 76 -2 11 0 10 10 -1 7 -8 25 -23 41 -33z m1323 5 c-13 -22 -206
-52 -206 -32 0 5 7 11 15 11 8 1 18 2 23 3 4 1 36 5 72 10 36 4 72 11 80 16
16 10 25 6 16 -8z m632 -27 c-3 -3 -9 2 -12 12 -6 14 -5 15 5 6 7 -7 10 -15 7
-18z m-853 5 c4 -6 5 -14 2 -17 -3 -3 -115 -6 -249 -8 -257 -3 -281 8 -48 22
233 14 288 15 295 3z m335 -102 c0 -21 -4 -38 -10 -38 -5 0 -10 -11 -10 -24 0
-13 -4 -26 -8 -28 -5 -1 -23 -25 -42 -53 -68 -102 -119 -153 -193 -194 -65
-36 -193 -78 -203 -68 -3 2 -6 58 -7 123 l-2 119 38 -3 c25 -2 37 1 32 7 -3 6
2 12 12 12 10 1 31 3 48 5 16 2 33 -2 37 -9 6 -9 8 -9 8 1 0 7 4 11 9 7 13 -7
6 -72 -9 -91 -11 -12 -10 -13 4 -8 9 3 16 16 17 28 1 19 2 19 9 -4 4 -14 9
-41 11 -60 2 -30 3 -28 8 15 3 28 3 67 0 88 -4 20 -2 37 2 37 5 0 18 9 29 20
11 11 31 22 44 24 22 4 26 0 30 -27 13 -77 15 -77 11 -4 l-5 79 30 11 c17 6
31 16 31 22 1 5 5 -6 9 -25 l7 -35 2 38 c0 20 5 37 10 37 9 0 24 54 23 80 -1
8 5 2 13 -15 8 -16 14 -47 15 -67z m-840 72 c0 -11 -17 -12 -265 -15 -88 -2
-167 1 -175 5 -8 5 55 9 140 9 84 1 155 3 157 5 9 9 143 6 143 -4z m1405 -76
c14 -38 24 -80 24 -94 0 -15 -6 -6 -14 25 -7 28 -23 72 -34 98 -23 54 -26 66
-11 51 6 -6 22 -42 35 -80z m-3335 32 c0 -2 -8 -10 -17 -17 -16 -13 -17 -12
-4 4 13 16 21 21 21 13z m1258 -28 c4 1 10 -19 13 -45 4 -35 6 -40 8 -18 2 29
3 29 13 8 6 -13 15 -23 20 -23 4 0 8 -16 8 -36 0 -21 -4 -33 -10 -29 -5 3 -10
15 -10 26 0 10 -4 19 -9 19 -17 0 -5 -113 16 -162 13 -28 19 -56 15 -70 -5
-20 -3 -21 10 -11 12 10 19 8 37 -13 42 -49 61 -93 61 -145 l0 -51 -29 24
c-50 41 -110 186 -111 269 -1 23 -1 23 -15 5 -13 -17 -15 -18 -15 -3 0 15 -5
19 -27 16 -21 -2 -29 94 -16 211 6 57 8 61 20 44 8 -10 17 -18 21 -16z m2712
-22 c0 -6 -7 -2 -15 8 -8 11 -15 25 -15 30 0 6 7 2 15 -8 8 -11 15 -25 15 -30z
m7 -38 c-3 -8 -6 -5 -6 6 -1 11 2 17 5 13 3 -3 4 -12 1 -19z m-4028 -16 c-2
-15 0 -32 3 -38 4 -6 1 -11 -7 -11 -8 0 -12 4 -9 9 3 4 -1 8 -8 9 -10 0 -10 2
0 6 6 2 12 16 12 29 0 13 3 24 6 24 3 0 4 -12 3 -28z m3952 -19 l24 -28 -30
25 c-16 14 -32 26 -34 28 -2 1 0 2 6 2 5 0 20 -12 34 -27z m-2520 -2 c13 -2
29 -55 29 -97 0 -28 4 -43 10 -39 6 4 10 12 9 18 -1 7 -1 21 0 32 1 16 3 17
10 5 6 -8 8 -17 5 -21 -2 -4 1 -11 7 -15 8 -4 9 -3 5 4 -11 18 2 14 34 -10 25
-18 30 -29 30 -62 0 -23 5 -48 10 -56 7 -11 10 3 10 47 l0 61 48 0 c26 0 51
-3 56 -6 5 -3 22 -6 38 -7 16 -2 31 -5 34 -7 7 -8 10 -146 2 -153 -9 -10 -111
13 -165 37 -43 19 -205 163 -222 198 -13 25 6 79 27 75 9 -2 20 -4 23 -4z
m1828 -31 c0 -10 -3 -8 -9 5 -12 27 -12 43 0 25 5 -8 9 -22 9 -30z m158 -22
c-3 -8 -6 -5 -6 6 -1 11 2 17 5 13 3 -3 4 -12 1 -19z m-2737 8 c0 -3 -4 -8
-10 -11 -5 -3 -10 -1 -10 4 0 6 5 11 10 11 6 0 10 -2 10 -4z m2587 -68 c-2
-13 -4 -3 -4 22 0 25 2 35 4 23 2 -13 2 -33 0 -45z m-1047 32 c0 6 5 8 10 5 6
-3 10 -15 10 -26 0 -11 5 -17 10 -14 6 4 8 10 6 14 -5 8 11 38 16 31 48 -66
57 -90 63 -168 l7 -84 -53 5 c-75 6 -119 15 -152 28 -17 7 -31 8 -40 2 -6 -6
-20 -13 -29 -16 -16 -6 -18 2 -18 73 0 67 3 83 19 97 19 16 19 39 0 28 -5 -4
-9 -4 -9 0 0 12 46 22 70 15 17 -5 30 -3 38 6 10 11 18 11 32 4 14 -8 20 -8
20 0z m-220 -46 c0 -31 2 -35 15 -24 13 11 15 1 15 -79 l0 -91 -74 0 c-40 0
-94 3 -120 6 l-46 7 0 77 c0 91 7 100 71 96 40 -2 46 0 41 16 -3 12 1 18 12
18 10 0 15 -4 12 -8 -8 -13 11 -35 32 -39 20 -3 37 21 26 38 -9 15 -27 10 -20
-6 3 -8 1 -15 -3 -15 -11 0 -22 26 -14 34 4 3 17 6 30 6 20 0 23 -5 23 -36z
m2090 -14 c0 -5 -5 -10 -11 -10 -5 0 -7 5 -4 10 3 6 8 10 11 10 2 0 4 -4 4
-10z m62 -22 c-7 -7 -12 -8 -12 -2 0 14 12 26 19 19 2 -3 -1 -11 -7 -17z m-31
-41 c-10 -9 -11 -8 -5 6 3 10 9 15 12 12 3 -3 0 -11 -7 -18z m-1477 -154 c-12
-100 -76 -203 -125 -203 -33 0 -33 0 -18 104 11 72 13 76 43 86 17 5 45 23 61
39 17 16 34 29 38 30 5 1 5 -25 1 -56z m-1022 -53 c4 0 8 -27 8 -60 0 -46 -3
-60 -15 -60 -8 0 -17 11 -21 25 -3 14 -11 25 -16 25 -6 0 -16 7 -23 16 -10 15
-13 15 -27 0 -14 -14 -17 -14 -22 0 -3 9 -6 40 -6 69 l0 54 57 -35 c31 -19 60
-34 65 -34z m868 -12 c-1 -13 -7 -53 -14 -90 -11 -56 -19 -74 -49 -103 -28
-27 -36 -42 -33 -63 2 -15 1 -19 -1 -9 -2 9 -8 17 -12 17 -4 0 -11 43 -14 97
-5 69 -11 101 -23 115 -16 17 -16 18 13 18 16 0 33 3 37 7 8 8 65 30 84 32 6
0 12 -9 12 -21z m-741 -24 c7 -6 5 -85 -3 -126 -7 -38 -7 -38 -27 -19 -11 10
-28 17 -38 14 -24 -6 -33 18 -35 90 l-1 59 50 -7 c27 -3 52 -8 54 -11z"/>
<path d="M3116 5668 c3 -5 10 -6 15 -3 13 9 11 12 -6 12 -8 0 -12 -4 -9 -9z"/>
<path d="M3095 5610 c-3 -5 -1 -10 4 -10 6 0 11 5 11 10 0 6 -2 10 -4 10 -3 0
-8 -4 -11 -10z"/>
<path d="M3081 5544 c0 -11 3 -14 6 -6 3 7 2 16 -1 19 -3 4 -6 -2 -5 -13z"/>
<path d="M3071 5454 c0 -11 3 -14 6 -6 3 7 2 16 -1 19 -3 4 -6 -2 -5 -13z"/>
<path d="M3062 5400 c0 -14 2 -19 5 -12 2 6 2 18 0 25 -3 6 -5 1 -5 -13z"/>
<path d="M3034 5393 c2 -12 -1 -24 -6 -25 -7 -3 -8 -20 -3 -48 6 -35 9 -40 17
-26 7 12 6 22 -3 32 -10 13 -10 17 0 24 11 6 11 14 2 36 -7 19 -10 21 -7 7z"/>
<path d="M3001 5184 c0 -11 3 -14 6 -6 3 7 2 16 -1 19 -3 4 -6 -2 -5 -13z"/>
<path d="M3875 5544 c-9 -15 -12 -23 -6 -20 11 7 35 46 28 46 -3 0 -12 -12
-22 -26z"/>
<path d="M3781 5384 c0 -11 3 -14 6 -6 3 7 2 16 -1 19 -3 4 -6 -2 -5 -13z"/>
<path d="M3720 5296 c0 -9 5 -16 10 -16 6 0 10 4 10 9 0 6 -4 13 -10 16 -5 3
-10 -1 -10 -9z"/>
<path d="M3640 5135 c0 -8 5 -15 10 -15 6 0 10 7 10 15 0 8 -4 15 -10 15 -5 0
-10 -7 -10 -15z"/>
<path d="M3551 4144 c0 -11 3 -14 6 -6 3 7 2 16 -1 19 -3 4 -6 -2 -5 -13z"/>
<path d="M3560 4085 c0 -8 4 -15 10 -15 5 0 7 7 4 15 -4 8 -8 15 -10 15 -2 0
-4 -7 -4 -15z"/>
<path d="M3542 4007 c-2 -34 20 -97 34 -97 8 0 -7 44 -17 50 -4 3 -9 23 -12
45 l-4 40 -1 -38z"/>
<path d="M3581 4014 c0 -11 3 -14 6 -6 3 7 2 16 -1 19 -3 4 -6 -2 -5 -13z"/>
<path d="M2911 4694 c0 -11 3 -14 6 -6 3 7 2 16 -1 19 -3 4 -6 -2 -5 -13z"/>
<path d="M1288 4726 c-17 -12 -17 -14 0 -29 16 -14 17 -13 17 14 0 16 0 29 0
29 0 0 -8 -7 -17 -14z"/>
<path d="M1386 4573 c-6 -14 -5 -15 5 -6 7 7 10 15 7 18 -3 3 -9 -2 -12 -12z"/>
<path d="M1400 4540 c0 -5 5 -10 10 -10 6 0 10 5 10 10 0 6 -4 10 -10 10 -5 0
-10 -4 -10 -10z"/>
<path d="M1350 4504 c0 -8 4 -13 9 -9 5 3 17 -2 25 -11 13 -12 16 -12 16 -2 0
18 -20 38 -37 38 -7 0 -13 -7 -13 -16z"/>
<path d="M1535 4020 c-4 -7 -4 -15 1 -19 5 -3 9 -12 10 -18 1 -7 2 -22 3 -33
0 -12 8 -20 19 -20 13 0 14 2 4 9 -7 4 -12 12 -11 17 1 5 1 11 -1 14 -1 3 -4
16 -6 29 -6 31 -10 36 -19 21z"/>
<path d="M1561 3899 c0 -14 2 -29 6 -33 4 -4 8 -15 8 -24 4 -55 6 -63 14 -58
11 7 4 88 -8 95 -5 3 -11 15 -14 26 -4 16 -5 15 -6 -6z"/>
<path d="M1596 3745 c-3 -8 -1 -15 4 -15 6 0 10 7 10 15 0 8 -2 15 -4 15 -2 0
-6 -7 -10 -15z"/>
<path d="M1607 3611 c-4 -17 -3 -21 5 -13 5 5 8 16 6 23 -3 8 -7 3 -11 -10z"/>
<path d="M4807 4259 c4 -13 8 -18 11 -10 2 7 -1 18 -6 23 -8 8 -9 4 -5 -13z"/>
<path d="M4730 4121 c0 -6 4 -13 10 -16 6 -3 7 1 4 9 -7 18 -14 21 -14 7z"/>
<path d="M4110 3770 c0 -19 3 -21 12 -12 9 9 9 15 0 24 -9 9 -12 7 -12 -12z"/>
<path d="M470 3815 c0 -8 4 -15 10 -15 5 0 7 7 4 15 -4 8 -8 15 -10 15 -2 0
-4 -7 -4 -15z"/>
<path d="M4321 3524 c0 -11 3 -14 6 -6 3 7 2 16 -1 19 -3 4 -6 -2 -5 -13z"/>
<path d="M6025 3420 c-3 -5 -1 -10 4 -10 6 0 11 5 11 10 0 6 -2 10 -4 10 -3 0
-8 -4 -11 -10z"/>
<path d="M5939 3313 c14 -28 17 -28 25 -6 4 10 4 14 0 10 -4 -4 -14 -1 -22 6
-13 10 -14 9 -3 -10z"/>
<path d="M3187 2883 c-10 -9 -9 -23 2 -23 5 0 11 7 15 15 5 15 -5 20 -17 8z"/>
<path d="M5529 2703 c-13 -16 -12 -17 4 -4 9 7 17 15 17 17 0 8 -8 3 -21 -13z"/>
<path d="M826 2307 c3 -10 9 -15 12 -12 3 3 0 11 -7 18 -10 9 -11 8 -5 -6z"/>
<path d="M846 2265 c-3 -8 -1 -15 4 -15 6 0 10 7 10 15 0 8 -2 15 -4 15 -2 0
-6 -7 -10 -15z"/>
<path d="M960 2176 c0 -2 7 -7 16 -10 8 -3 12 -2 9 4 -6 10 -25 14 -25 6z"/>
<path d="M3500 1365 c-7 -9 -11 -17 -9 -20 3 -2 10 5 17 15 14 24 10 26 -8 5z"/>
<path d="M4015 5750 c-3 -5 -1 -10 4 -10 6 0 11 5 11 10 0 6 -2 10 -4 10 -3 0
-8 -4 -11 -10z"/>
<path d="M2146 5672 c7 -4 14 -16 17 -27 4 -15 5 -14 6 8 1 20 -4 27 -16 27
-12 0 -14 -3 -7 -8z"/>
<path d="M4166 5507 c-20 -30 -45 -62 -56 -72 -11 -10 -20 -23 -20 -29 0 -6
10 1 23 15 12 14 30 25 40 23 15 -2 16 0 6 13 -10 11 -10 16 -1 22 12 7 54 81
46 81 -1 0 -19 -24 -38 -53z"/>
<path d="M4180 5469 c0 -5 5 -7 10 -4 6 3 10 8 10 11 0 2 -4 4 -10 4 -5 0 -10
-5 -10 -11z"/>
<path d="M2700 5413 c0 -6 8 -17 18 -24 16 -13 16 -13 2 6 -8 11 -16 22 -17
24 -2 2 -3 0 -3 -6z"/>
<path d="M3401 5404 c0 -11 3 -14 6 -6 3 7 2 16 -1 19 -3 4 -6 -2 -5 -13z"/>
<path d="M4138 5384 c-5 -4 -8 -19 -8 -33 0 -18 3 -22 11 -14 6 6 9 21 7 33
-1 12 -6 18 -10 14z"/>
<path d="M2760 5267 c0 -19 16 -31 24 -18 3 5 -1 14 -9 21 -12 10 -15 10 -15
-3z"/>
<path d="M2730 5230 c0 -5 5 -10 10 -10 6 0 10 5 10 10 0 6 -4 10 -10 10 -5 0
-10 -4 -10 -10z"/>
<path d="M3436 5073 c-4 -9 0 -23 8 -32 20 -19 26 -13 19 22 -6 31 -18 35 -27
10z"/>
<path d="M1078 5023 c7 -3 16 -2 19 1 4 3 -2 6 -13 5 -11 0 -14 -3 -6 -6z"/>
<path d="M1603 4855 c0 -7 6 -11 14 -8 7 3 13 6 13 8 0 2 -6 5 -13 8 -8 3 -14
-1 -14 -8z"/>
<path d="M2725 4841 c-3 -5 -1 -12 5 -16 5 -3 10 1 10 9 0 18 -6 21 -15 7z"/>
<path d="M5788 4753 c7 -3 16 -2 19 1 4 3 -2 6 -13 5 -11 0 -14 -3 -6 -6z"/>
<path d="M5186 4702 c-3 -5 1 -9 9 -9 8 0 15 4 15 9 0 4 -4 8 -9 8 -6 0 -12
-4 -15 -8z"/>
<path d="M5083 4660 c-13 -5 -23 -11 -23 -14 0 -7 40 6 46 15 6 10 6 10 -23
-1z"/>
<path d="M5046 4544 c-5 -14 -4 -15 9 -4 17 14 19 20 6 20 -5 0 -12 -7 -15
-16z"/>
<path d="M5072 4536 c-6 -13 -17 -23 -24 -23 -7 1 -15 -2 -18 -7 -3 -5 5 -10
17 -11 12 -1 21 1 20 4 -3 14 25 51 35 45 7 -4 8 -3 4 4 -11 18 -22 14 -34
-12z"/>
<path d="M4897 4505 c-8 -8 -17 -12 -21 -10 -3 3 -4 2 -1 -2 3 -4 14 -7 24 -8
13 -1 17 3 13 13 -4 11 -1 14 12 9 10 -4 15 -3 11 3 -9 14 -21 12 -38 -5z"/>
<path d="M4990 4484 c0 -8 5 -12 10 -9 6 4 8 11 5 16 -9 14 -15 11 -15 -7z"/>
<path d="M4880 4460 c0 -5 7 -7 15 -4 8 4 15 8 15 10 0 2 -7 4 -15 4 -8 0 -15
-4 -15 -10z"/>
<path d="M4955 4430 c3 -5 8 -10 11 -10 2 0 4 5 4 10 0 6 -5 10 -11 10 -5 0
-7 -4 -4 -10z"/>
<path d="M5352 4403 c-10 -4 -10 -8 -2 -18 8 -10 8 -20 0 -37 -11 -22 -10 -22
4 -4 20 25 31 15 16 -16 l-11 -23 20 24 c22 24 28 47 11 36 -5 -3 -10 1 -10 9
0 9 -5 16 -11 16 -5 0 -7 5 -4 10 7 11 6 11 -13 3z"/>
<path d="M5325 4360 c-3 -5 -1 -10 4 -10 6 0 11 5 11 10 0 6 -2 10 -4 10 -3 0
-8 -4 -11 -10z"/>
<path d="M2741 4335 c1 -19 18 -51 18 -35 0 8 -4 22 -9 30 -5 8 -9 11 -9 5z"/>
<path d="M5309 4333 c-1 -5 -2 -14 -3 -21 0 -7 -8 -17 -16 -23 -12 -8 -9 -9
12 -5 16 4 28 1 30 -6 3 -9 6 -9 12 0 4 7 2 12 -3 12 -6 0 -11 7 -11 15 0 8
-5 15 -11 15 -5 0 -7 5 -4 10 3 6 4 10 1 10 -3 0 -7 -3 -7 -7z"/>
<path d="M5778 4283 c7 -3 16 -2 19 1 4 3 -2 6 -13 5 -11 0 -14 -3 -6 -6z"/>
<path d="M5266 4261 c-3 -4 6 -8 20 -9 13 -1 24 0 24 2 0 7 -40 14 -44 7z"/>
<path d="M5350 4245 c-7 -8 -9 -15 -6 -15 4 0 14 7 22 15 9 8 11 15 6 15 -5 0
-15 -7 -22 -15z"/>
<path d="M5258 4233 c7 -3 16 -2 19 1 4 3 -2 6 -13 5 -11 0 -14 -3 -6 -6z"/>
<path d="M5385 4230 c-3 -5 -1 -10 4 -10 6 0 11 5 11 10 0 6 -2 10 -4 10 -3 0
-8 -4 -11 -10z"/>
<path d="M5415 4230 c-3 -5 -1 -10 4 -10 6 0 11 5 11 10 0 6 -2 10 -4 10 -3 0
-8 -4 -11 -10z"/>
<path d="M6148 4233 c7 -3 16 -2 19 1 4 3 -2 6 -13 5 -11 0 -14 -3 -6 -6z"/>
<path d="M6200 4210 c0 -5 7 -7 15 -4 8 4 15 8 15 10 0 2 -7 4 -15 4 -8 0 -15
-4 -15 -10z"/>
<path d="M5200 4160 c-7 -13 -7 -26 -2 -36 8 -15 10 -15 15 0 4 10 3 15 -3 11
-13 -8 -13 1 0 26 6 10 8 19 6 19 -3 0 -10 -9 -16 -20z"/>
<path d="M5276 4035 c8 -37 14 -45 14 -19 0 10 -5 26 -10 34 -8 11 -9 7 -4
-15z"/>
<path d="M5795 3979 c-11 -16 -1 -19 13 -3 7 8 8 14 3 14 -5 0 -13 -5 -16 -11z"/>
<path d="M5241 3964 c0 -11 3 -14 6 -6 3 7 2 16 -1 19 -3 4 -6 -2 -5 -13z"/>
<path d="M5223 3905 c-7 -8 -13 -27 -13 -42 0 -26 1 -27 14 -8 30 45 30 85 -1
50z"/>
<path d="M5736 3804 c-4 -9 -4 -19 -1 -22 2 -3 7 3 11 12 4 9 4 19 1 22 -2 3
-7 -3 -11 -12z"/>
<path d="M2711 3794 c0 -11 3 -14 6 -6 3 7 2 16 -1 19 -3 4 -6 -2 -5 -13z"/>
<path d="M5151 3774 c0 -11 3 -14 6 -6 3 7 2 16 -1 19 -3 4 -6 -2 -5 -13z"/>
<path d="M4314 3752 c-9 -13 -8 -20 2 -30 12 -11 14 -9 14 6 0 10 5 23 12 30
9 9 9 12 -3 12 -8 0 -19 -8 -25 -18z"/>
<path d="M5890 3759 c0 -5 5 -7 10 -4 6 3 10 8 10 11 0 2 -4 4 -10 4 -5 0 -10
-5 -10 -11z"/>
<path d="M5110 3711 c0 -5 5 -13 10 -16 6 -3 10 -2 10 4 0 5 -4 13 -10 16 -5
3 -10 2 -10 -4z"/>
<path d="M5617 3657 c-3 -8 1 -14 8 -14 7 0 11 6 8 14 -3 7 -6 13 -8 13 -2 0
-5 -6 -8 -13z"/>
<path d="M5160 3640 c0 -5 5 -10 10 -10 6 0 10 5 10 10 0 6 -4 10 -10 10 -5 0
-10 -4 -10 -10z"/>
<path d="M5090 3629 c0 -5 5 -7 10 -4 6 3 10 8 10 11 0 2 -4 4 -10 4 -5 0 -10
-5 -10 -11z"/>
<path d="M5700 3626 c0 -2 7 -9 15 -16 13 -11 14 -10 9 4 -5 14 -24 23 -24 12z"/>
<path d="M5810 3621 c0 -6 5 -13 10 -16 6 -3 10 1 10 9 0 9 -4 16 -10 16 -5 0
-10 -4 -10 -9z"/>
<path d="M5126 3585 c-9 -26 -7 -32 5 -12 6 10 9 21 6 23 -2 3 -7 -2 -11 -11z"/>
<path d="M5590 3448 c0 -6 -9 -21 -20 -33 -19 -20 -19 -23 -4 -36 15 -12 16
-11 9 11 -6 20 -5 23 6 13 10 -10 10 -17 -1 -38 -7 -14 -10 -28 -7 -31 4 -4
13 7 20 25 7 17 15 30 18 29 2 -2 -2 3 -10 10 -12 9 -12 15 -3 24 9 9 15 9 24
0 7 -7 16 -12 21 -12 6 0 -2 11 -17 25 -30 28 -36 30 -36 13z"/>
<path d="M5706 3428 c3 -5 10 -6 15 -3 13 9 11 12 -6 12 -8 0 -12 -4 -9 -9z"/>
<path d="M5543 3360 c-1 -11 -9 -27 -17 -36 -9 -8 -16 -20 -16 -26 0 -5 -9
-22 -19 -37 -20 -27 -14 -60 8 -47 6 4 11 2 11 -3 0 -6 -4 -11 -10 -11 -5 0
-10 -7 -10 -15 0 -8 5 -15 10 -15 10 0 14 20 12 53 -1 9 2 17 7 17 6 0 31 43
31 55 0 2 -8 6 -17 8 -15 4 -16 5 -2 6 19 1 35 49 22 62 -5 5 -9 0 -10 -11z"/>
<path d="M4985 3350 c3 -5 10 -10 16 -10 5 0 9 5 9 10 0 6 -7 10 -16 10 -8 0
-12 -4 -9 -10z"/>
<path d="M5609 3358 c-6 -20 -3 -45 7 -45 10 0 10 5 2 20 -9 17 -8 19 6 14 10
-4 15 -3 11 3 -5 9 -24 14 -26 8z"/>
<path d="M4974 3269 c-4 -8 -3 -9 4 -5 16 9 15 -7 0 -22 -6 -6 -10 -13 -7 -15
2 -2 12 4 21 14 14 15 14 20 3 29 -10 8 -15 8 -21 -1z"/>
<path d="M5565 3229 c-4 -6 -5 -12 -2 -15 2 -3 7 2 10 11 7 17 1 20 -8 4z"/>
<path d="M5437 3157 c-34 -79 -34 -85 3 -45 16 18 30 27 30 21 0 -7 4 -13 9
-13 9 0 8 19 -2 72 -6 33 -13 27 -40 -35z"/>
<path d="M5550 3191 c0 -7 -5 -9 -12 -5 -7 5 -8 3 -3 -5 5 -9 10 -10 18 -2 6
6 8 14 4 18 -4 3 -7 1 -7 -6z"/>
<path d="M1142 3095 c6 -14 15 -25 20 -25 5 0 1 11 -8 25 -9 14 -18 25 -20 25
-2 0 2 -11 8 -25z"/>
<path d="M5450 3116 c0 -2 8 -10 18 -17 15 -13 16 -12 3 4 -13 16 -21 21 -21
13z"/>
<path d="M5435 3090 c-3 -5 -1 -10 4 -10 6 0 11 5 11 10 0 6 -2 10 -4 10 -3 0
-8 -4 -11 -10z"/>
<path d="M6352 3065 c-13 -7 -19 -16 -14 -19 6 -3 13 -2 16 3 3 5 15 7 26 4
14 -4 20 0 20 11 0 19 -16 19 -48 1z"/>
<path d="M5371 3023 c-12 -24 -18 -49 -15 -55 4 -7 2 -8 -4 -4 -7 4 -12 3 -12
-2 0 -33 43 -14 85 37 l29 36 -28 -25 c-16 -14 -26 -18 -22 -10 3 8 9 23 12
33 4 9 10 17 15 17 21 0 7 15 -15 16 -18 1 -28 -8 -45 -43z m13 -39 c3 -8 2
-12 -4 -9 -6 3 -10 10 -10 16 0 14 7 11 14 -7z"/>
<path d="M5286 3047 c3 -10 9 -15 12 -12 3 3 0 11 -7 18 -10 9 -11 8 -5 -6z"/>
<path d="M6383 3021 c-3 -11 -14 -21 -25 -24 -19 -5 -19 -7 -3 -31 10 -14 13
-26 7 -26 -6 0 -8 -9 -5 -20 3 -11 14 -20 24 -20 17 0 19 8 19 70 0 68 -7 89
-17 51z"/>
<path d="M5207 2913 c3 -7 6 -13 8 -13 2 0 5 6 8 13 3 8 -1 14 -8 14 -7 0 -11
-6 -8 -14z"/>
<path d="M5148 2896 c-17 -23 -17 -24 0 -22 9 2 17 7 17 12 0 5 4 15 8 22 15
22 -8 12 -25 -12z"/>
<path d="M5308 2913 c0 -5 -2 -15 -2 -23 -1 -8 -8 -14 -16 -12 -11 2 -11 0 -1
-11 9 -12 8 -16 -3 -20 -8 -3 -17 -1 -20 6 -2 7 -5 4 -5 -5 -1 -21 3 -22 30
-7 11 5 17 14 14 20 -4 5 -2 9 3 9 6 0 9 11 8 25 -1 25 -5 32 -8 18z"/>
<path d="M6230 2878 c0 -4 19 -9 43 -10 l42 -1 -37 -4 c-33 -4 -38 -8 -38 -29
0 -13 6 -24 13 -24 68 -3 112 -10 115 -19 2 -6 10 -11 18 -11 10 0 14 14 14
54 l0 55 -85 -1 c-47 -1 -85 -5 -85 -10z"/>
<path d="M6210 2830 c0 -11 5 -20 10 -20 6 0 10 9 10 20 0 11 -4 20 -10 20 -5
0 -10 -9 -10 -20z"/>
<path d="M5230 2825 c-7 -8 -9 -15 -4 -15 5 0 2 -5 -6 -11 -13 -9 -13 -10 0
-6 8 2 14 10 12 17 -2 7 3 10 12 7 10 -4 13 -1 9 9 -6 18 -8 17 -23 -1z"/>
<path d="M5635 2739 c3 -4 -1 -22 -9 -40 -7 -19 -17 -45 -21 -58 -6 -21 -5
-22 8 -10 8 8 13 17 10 22 -2 4 5 20 16 36 11 15 17 31 13 35 -4 4 -2 6 5 4 6
-1 10 1 10 7 -1 5 -10 10 -19 10 -9 1 -15 -2 -13 -6z"/>
<path d="M6215 2730 c-3 -5 1 -10 9 -10 9 0 16 5 16 10 0 6 -4 10 -9 10 -6 0
-13 -4 -16 -10z"/>
<path d="M456 2702 c-6 -10 -16 -122 -11 -122 4 0 14 35 31 103 6 25 -8 39
-20 19z"/>
<path d="M5677 2703 c-12 -12 -7 -22 8 -17 8 4 15 10 15 15 0 11 -14 12 -23 2z"/>
<path d="M5690 2654 c0 -8 5 -12 10 -9 6 3 10 10 10 16 0 5 -4 9 -10 9 -5 0
-10 -7 -10 -16z"/>
<path d="M5660 2651 c0 -5 5 -13 10 -16 6 -3 10 -2 10 4 0 5 -4 13 -10 16 -5
3 -10 2 -10 -4z"/>
<path d="M5574 2619 c-3 -6 -1 -16 5 -22 8 -8 11 -5 11 11 0 24 -5 28 -16 11z"/>
<path d="M5534 2585 c-3 -14 -10 -22 -15 -19 -5 3 -6 10 -3 16 4 6 -2 6 -15
-1 -11 -7 -21 -14 -21 -17 0 -3 5 -2 12 2 6 4 17 -1 25 -11 8 -12 13 -14 13
-6 0 7 6 11 13 8 10 -4 12 3 9 24 -5 36 -10 37 -18 4z"/>
<path d="M5590 2525 c-7 -9 -8 -15 -2 -15 5 0 12 7 16 15 3 8 4 15 2 15 -2 0
-9 -7 -16 -15z"/>
<path d="M5475 2490 c4 -6 11 -8 16 -5 14 9 11 15 -7 15 -8 0 -12 -5 -9 -10z"/>
<path d="M430 2454 c0 -8 5 -12 10 -9 6 3 10 10 10 16 0 5 -4 9 -10 9 -5 0
-10 -7 -10 -16z"/>
<path d="M6365 2460 c-3 -5 1 -10 9 -10 9 0 16 5 16 10 0 6 -4 10 -9 10 -6 0
-13 -4 -16 -10z"/>
<path d="M5462 2451 c-10 -6 -9 -11 4 -22 16 -12 17 -12 11 4 -6 15 -3 17 14
12 15 -5 19 -4 15 4 -8 13 -26 14 -44 2z"/>
<path d="M5336 2442 c-3 -5 1 -13 10 -16 25 -10 34 -7 34 9 0 8 -4 15 -10 15
-5 0 -10 -6 -10 -12 0 -10 -3 -9 -9 1 -5 8 -11 9 -15 3z"/>
<path d="M6391 2414 c0 -11 3 -14 6 -6 3 7 2 16 -1 19 -3 4 -6 -2 -5 -13z"/>
<path d="M5849 2389 c-10 -6 -7 -9 14 -9 29 0 35 5 14 13 -8 3 -20 1 -28 -4z"/>
<path d="M5985 2389 c-104 -6 -73 -12 67 -13 54 -1 98 2 98 7 0 7 -6 8 -55 11
-11 0 -60 -2 -110 -5z"/>
<path d="M6339 2346 c-2 -2 -47 -6 -99 -9 -123 -8 -271 -24 -278 -32 -3 -3 90
-5 206 -5 135 0 212 -4 212 -10 0 -5 5 -10 10 -10 6 0 10 16 10 35 0 32 -3 35
-28 35 -16 0 -31 -2 -33 -4z"/>
<path d="M5268 2333 c7 -3 16 -2 19 1 4 3 -2 6 -13 5 -11 0 -14 -3 -6 -6z"/>
<path d="M5808 2303 c23 -2 59 -2 80 0 20 2 1 4 -43 4 -44 0 -61 -2 -37 -4z"/>
<path d="M18 2253 c7 -3 16 -2 19 1 4 3 -2 6 -13 5 -11 0 -14 -3 -6 -6z"/>
<path d="M288 2253 c6 -2 18 -2 25 0 6 3 1 5 -13 5 -14 0 -19 -2 -12 -5z"/>
<path d="M488 2253 c7 -3 16 -2 19 1 4 3 -2 6 -13 5 -11 0 -14 -3 -6 -6z"/>
<path d="M0 2168 l0 -31 53 8 c28 4 117 13 197 20 176 14 154 22 -77 29 l-173
5 0 -31z"/>
<path d="M475 2190 c-23 -6 -15 -8 38 -9 39 -1 67 3 67 9 0 11 -60 11 -105 0z"/>
<path d="M640 2189 c0 -5 19 -9 42 -9 49 0 47 5 -4 13 -21 3 -38 2 -38 -4z"/>
<path d="M763 2183 c9 -2 23 -2 30 0 6 3 -1 5 -18 5 -16 0 -22 -2 -12 -5z"/>
<path d="M5540 2165 c-7 -8 -16 -12 -21 -10 -4 3 -13 -3 -18 -14 -8 -14 -8
-19 2 -17 17 2 62 44 55 51 -3 3 -11 -1 -18 -10z"/>
<path d="M943 2043 c-36 -5 -43 -18 -15 -26 9 -2 26 -8 36 -13 16 -6 18 -4 13
10 -6 14 -3 16 15 10 20 -6 21 -5 9 10 -7 9 -16 15 -20 14 -3 0 -21 -3 -38 -5z"/>
<path d="M5385 2041 c-7 -12 12 -24 25 -16 11 7 4 25 -10 25 -5 0 -11 -4 -15
-9z"/>
<path d="M5370 2006 c0 -2 7 -7 16 -10 8 -3 12 -2 9 4 -6 10 -25 14 -25 6z"/>
<path d="M920 1879 c0 -5 5 -7 10 -4 6 3 10 8 10 11 0 2 -4 4 -10 4 -5 0 -10
-5 -10 -11z"/>
<path d="M890 1845 c0 -2 9 -9 20 -15 16 -9 18 -8 14 5 -5 13 -34 22 -34 10z"/>
<path d="M5291 1744 c0 -11 3 -14 6 -6 3 7 2 16 -1 19 -3 4 -6 -2 -5 -13z"/>
<path d="M5069 1704 c8 -19 17 -31 19 -26 4 14 -16 62 -27 62 -4 0 -1 -16 8
-36z"/>
<path d="M5101 1664 c0 -11 3 -14 6 -6 3 7 2 16 -1 19 -3 4 -6 -2 -5 -13z"/>
<path d="M4516 1645 c-3 -10 -4 -20 -1 -23 3 -3 5 0 5 7 0 9 4 9 14 -1 14 -13
11 -33 -3 -24 -4 3 -5 -8 -3 -25 2 -16 8 -29 13 -29 5 0 6 12 3 26 -5 19 -4
25 5 20 7 -5 11 2 11 19 0 14 -4 24 -9 20 -6 -3 -14 2 -19 11 -8 15 -10 15
-16 -1z"/>
<path d="M4670 1531 c0 -4 -13 -24 -30 -42 -29 -33 -33 -50 -14 -56 5 -1 21
22 35 52 14 30 22 55 18 55 -5 0 -9 -4 -9 -9z"/>
<path d="M4551 1444 c0 -11 3 -14 6 -6 3 7 2 16 -1 19 -3 4 -6 -2 -5 -13z"/>
<path d="M5170 1446 c0 -8 5 -18 10 -21 6 -3 10 3 10 14 0 12 -4 21 -10 21 -5
0 -10 -6 -10 -14z"/>
<path d="M5160 1386 c0 -4 7 -14 15 -22 8 -9 15 -11 15 -6 0 5 -7 15 -15 22
-8 7 -15 9 -15 6z"/>
<path d="M5140 1364 c0 -17 17 -36 24 -26 3 5 -1 15 -9 22 -8 7 -15 9 -15 4z"/>
<path d="M3942 1290 c0 -14 2 -19 5 -12 2 6 2 18 0 25 -3 6 -5 1 -5 -13z"/>
<path d="M2311 1004 c0 -11 3 -14 6 -6 3 7 2 16 -1 19 -3 4 -6 -2 -5 -13z"/>
</g>
</svg>
